<svg width="250" height="56" viewBox="0 0 250 56" fill="none" xmlns="http://www.w3.org/2000/svg">
<path d="M53.8794 0.770096V34.5357C53.8794 34.7974 53.7465 35.0412 53.5263 35.1825L48.6227 38.3374L47.8921 38.8078L43.091 41.8976C42.5791 42.2271 41.9057 41.8591 41.9057 41.2508V35.9614C41.9057 35.6997 42.0386 35.456 42.2588 35.3147L43.0918 34.7788L47.5394 31.9164C47.7596 31.7747 47.8925 31.5313 47.8925 31.2696V11.7413C47.8925 11.1326 47.2191 10.7651 46.7072 11.0945L35.92 18.037L32.0292 20.541L29.9331 21.8898L26.4982 24.1001L23.9466 25.7421L21.9713 27.0135C21.5009 27.3163 21.5009 28.0042 21.9713 28.307L23.9463 29.5781L26.4978 31.2201L29.9327 33.4304L32.0288 34.7795L35.5669 37.0565C35.787 37.1982 35.92 37.4416 35.92 37.7032V46.0939C35.92 46.3556 35.787 46.5993 35.5669 46.7406L32.0288 49.0176L29.9327 50.3663L26.4978 52.577L23.9463 54.2191L21.3825 55.8687C21.1288 56.0317 20.8035 56.0317 20.5498 55.8687L17.9598 54.2023L16.44 53.2242C15.9696 52.9214 15.9696 52.2331 16.44 51.9307L17.9598 50.9529L20.9666 49.018L23.9463 47.1002L26.4978 45.4582L29.5796 43.4753C29.7998 43.3336 29.9327 43.0902 29.9327 42.8285V40.9694C29.9327 40.7077 29.7998 40.4639 29.5796 40.3226L26.4978 38.3397L23.9463 36.6977L20.9666 34.7799L17.9598 32.845L15.4349 31.2205L12.3256 29.2193C12.1055 29.0776 11.9726 28.8342 11.9726 28.5725V26.7492C11.9726 26.4875 12.1055 26.2437 12.3256 26.1024L15.4349 24.1012L17.9598 22.4763L19.9614 21.1885C20.4322 20.8857 20.4322 20.1975 19.9614 19.8947L17.9598 18.6065L11.9729 14.7538L7.17218 11.664C6.66026 11.3345 5.98685 11.7021 5.98685 12.3107V31.839C5.98685 32.1007 6.11978 32.3445 6.33993 32.4858L9.90394 34.7795L11.9733 36.1107L15.4356 38.3389L17.9606 39.9638L19.9614 41.2512C20.4322 41.554 20.4322 42.2423 19.9614 42.5451L17.9606 43.8325L15.8519 45.1896C15.5983 45.3527 15.273 45.353 15.0193 45.1896L11.9733 43.2296L9.90432 41.8984L5.98685 39.3769L4.37263 38.3386L0.353081 35.7519C0.132926 35.6102 0 35.3669 0 35.1052V1.33953C0 0.730863 0.673416 0.363303 1.18533 0.692774L5.98609 3.78218L11.9726 7.63489L17.9594 11.4876L23.9459 15.3403L26.0812 16.7142C26.3348 16.8772 26.6601 16.8772 26.9138 16.7142L29.9324 14.7713L35.9192 10.9186L41.9057 7.06585L47.8921 3.21389L52.6937 0.124099C53.206 -0.206134 53.8794 0.161432 53.8794 0.770096Z" fill="#D71F26"/>
<path d="M57.59 4.1543H61.0858L66.3867 14.9617L71.6419 4.1543H75.1377V20.9284H72.3271V8.89906L67.3458 19.2029H65.3808L60.3766 8.89906V20.9284H57.5893V4.1543H57.59Z" fill="black"/>
<path d="M84.3575 10.7199C83.7253 10.5127 83.1425 10.4083 82.6096 10.4083C82.1072 10.4083 81.7073 10.5005 81.4102 10.6841C81.1131 10.8681 80.965 11.1514 80.965 11.5346C80.965 11.9342 81.1512 12.2416 81.5249 12.4571C81.8978 12.6727 82.4881 12.9005 83.2956 13.1401C84.1484 13.4117 84.8493 13.6794 85.3978 13.9426C85.9463 14.2058 86.422 14.5977 86.8261 15.1169C87.2295 15.6364 87.4313 16.3194 87.4313 17.1657C87.4313 18.4116 86.9743 19.3703 86.0605 20.0415C85.1468 20.7122 83.9961 21.0478 82.61 21.0478C81.6654 21.0478 80.744 20.892 79.8455 20.5804C78.9466 20.2688 78.1852 19.8255 77.5605 19.2503L78.589 17.0697C79.1371 17.5653 79.7922 17.9526 80.554 18.2318C81.3158 18.5114 82.0391 18.6512 82.7247 18.6512C83.2728 18.6512 83.7108 18.5514 84.0384 18.3514C84.3656 18.1518 84.5297 17.8525 84.5297 17.4529C84.5297 17.0057 84.3393 16.6702 83.9584 16.4462C83.5775 16.2226 82.9604 15.9754 82.1076 15.7035C81.2849 15.4483 80.6145 15.1965 80.0969 14.9486C79.5789 14.7014 79.1294 14.3254 78.7489 13.8223C78.368 13.3191 78.1776 12.6602 78.1776 11.8454C78.1776 10.5839 78.6152 9.62103 79.4917 8.9579C80.3673 8.29514 81.4681 7.96338 82.7932 7.96338C83.6007 7.96338 84.396 8.08336 85.181 8.32294C85.9653 8.56252 86.6623 8.89809 87.2717 9.32925L86.198 11.5818C85.6027 11.2154 84.9894 10.9279 84.3575 10.7199Z" fill="black"/>
<path d="M97.1185 20.1374C96.1435 20.7606 95.1227 21.0721 94.0566 21.0721C93.0053 21.0721 92.1445 20.7488 91.4745 20.1016C90.8041 19.4545 90.4689 18.5 90.4689 17.2381V10.9119H88.7553L88.7325 8.63527H90.4689V5.11279H93.4166V8.63527H96.9125V10.9119H93.4166V16.6869C93.4166 17.2781 93.5229 17.6974 93.7366 17.945C93.9499 18.193 94.2695 18.3164 94.6964 18.3164C95.1535 18.3164 95.7321 18.1408 96.4329 17.7892L97.1185 20.1374Z" fill="black"/>
<path d="M106.669 20.9283V19.3708C106.243 19.9304 105.694 20.3535 105.024 20.6407C104.354 20.9283 103.585 21.0719 102.717 21.0719C101.863 21.0719 101.113 20.9005 100.466 20.5566C99.8179 20.2134 99.3194 19.738 98.9689 19.1309C98.6185 18.5237 98.4437 17.845 98.4437 17.0939C98.4437 15.8956 98.8471 14.9575 99.6545 14.2783C100.462 13.5996 101.604 13.2522 103.082 13.2358H106.647V12.9003C106.647 12.1495 106.41 11.5668 105.938 11.1512C105.466 10.736 104.781 10.5281 103.882 10.5281C102.724 10.5281 101.513 10.9276 100.249 11.7263L99.175 9.56975C100.135 9.0106 101.007 8.60761 101.791 8.35965C102.576 8.11245 103.494 7.98828 104.545 7.98828C106.129 7.98828 107.359 8.38783 108.235 9.18656C109.111 9.98567 109.556 11.1036 109.571 12.5415L109.594 20.9283H106.669ZM105.619 18.0408C106.228 17.6176 106.57 17.0943 106.647 16.4711V15.3208H103.562C102.77 15.3208 102.187 15.445 101.814 15.6926C101.441 15.9402 101.254 16.3435 101.254 16.9027C101.254 17.4458 101.449 17.8774 101.837 18.1966C102.226 18.5161 102.755 18.6757 103.425 18.6757C104.278 18.6757 105.009 18.4643 105.619 18.0408Z" fill="black"/>
<path d="M118.14 10.744C117.149 10.744 116.346 11.0955 115.729 11.7983C115.112 12.5014 114.804 13.4121 114.804 14.53C114.804 15.6803 115.112 16.607 115.729 17.3098C116.346 18.0129 117.15 18.3641 118.14 18.3641C119.602 18.3641 120.699 17.8609 121.43 16.8546L123.281 18.4601C122.732 19.2908 122.009 19.9299 121.11 20.3771C120.211 20.8242 119.168 21.0478 117.98 21.0478C116.776 21.0478 115.706 20.7766 114.769 20.2331C113.832 19.69 113.105 18.927 112.587 17.9447C112.069 16.962 111.81 15.8323 111.81 14.554C111.81 13.2601 112.073 12.1182 112.599 11.1275C113.124 10.1372 113.856 9.37046 114.792 8.82693C115.729 8.28415 116.806 8.01221 118.025 8.01221C119.137 8.01221 120.131 8.21597 121.007 8.62315C121.883 9.03032 122.595 9.60966 123.143 10.3604L121.338 12.1574C120.516 11.2155 119.449 10.744 118.14 10.744Z" fill="black"/>
<path d="M134.088 20.9283L130.775 15.3209L128.902 17.3819V20.9283H125.931V3.14795H128.902V13.4518L133.928 8.13192H137.356L132.831 13.0683L137.63 20.928L134.088 20.9283Z" fill="black"/>
<path d="M152.881 7.24524C152.021 6.95767 151.263 6.81407 150.608 6.81407C149.877 6.81407 149.298 6.95767 148.871 7.24524C148.445 7.53282 148.232 7.93237 148.232 8.44353C148.232 8.90707 148.38 9.29405 148.677 9.60562C148.974 9.91719 149.347 10.1728 149.797 10.3724C150.246 10.5723 150.859 10.7917 151.636 11.0313C152.717 11.3669 153.604 11.7024 154.298 12.038C154.99 12.3736 155.581 12.8687 156.068 13.5235C156.556 14.1786 156.799 15.0413 156.799 16.1112C156.799 17.1339 156.537 18.0245 156.011 18.7832C155.486 19.5423 154.762 20.1216 153.841 20.5208C152.919 20.9204 151.864 21.12 150.676 21.12C149.427 21.12 148.208 20.8766 147.02 20.389C145.832 19.9019 144.795 19.2509 143.913 18.4362L145.192 15.7045C145.999 16.4876 146.906 17.1023 147.911 17.5495C148.917 17.997 149.853 18.2206 150.722 18.2206C151.575 18.2206 152.245 18.0492 152.732 17.7053C153.219 17.3621 153.463 16.8947 153.463 16.3036C153.463 15.8244 153.315 15.4291 153.018 15.1175C152.721 14.8059 152.344 14.5542 151.887 14.363C151.43 14.1714 150.805 13.9554 150.013 13.7158C148.931 13.3803 148.048 13.0531 147.363 12.7331C146.677 12.4139 146.091 11.9306 145.603 11.2834C145.115 10.6363 144.872 9.78578 144.872 8.73147C144.872 7.75715 145.119 6.90663 145.614 6.17951C146.11 5.45277 146.81 4.88981 147.717 4.49025C148.623 4.09108 149.671 3.89111 150.859 3.89111C151.895 3.89111 152.918 4.05071 153.932 4.37027C154.944 4.68984 155.847 5.12139 156.639 5.66416L155.405 8.4679C154.584 7.94037 153.742 7.53282 152.881 7.24524Z" fill="black"/>
<path d="M168.281 8.82743C169.248 9.37058 170.003 10.1335 170.543 11.1158C171.084 12.0985 171.354 13.2286 171.354 14.5065C171.354 15.8004 171.084 16.9427 170.543 17.933C170.002 18.9237 169.248 19.6905 168.281 20.2336C167.314 20.7768 166.198 21.0483 164.934 21.0483C163.655 21.0483 162.527 20.7771 161.552 20.2336C160.577 19.6905 159.819 18.9237 159.279 17.933C158.738 16.9427 158.468 15.8004 158.468 14.5065C158.468 13.2286 158.738 12.0981 159.279 11.1158C159.819 10.1335 160.577 9.37058 161.552 8.82743C162.527 8.28466 163.655 8.0127 164.934 8.0127C166.198 8.01231 167.314 8.28427 168.281 8.82743ZM162.421 11.7508C161.781 12.4695 161.461 13.4042 161.461 14.5541C161.461 15.7044 161.781 16.6391 162.421 17.3579C163.061 18.077 163.898 18.4362 164.934 18.4362C165.94 18.4362 166.762 18.077 167.402 17.3579C168.042 16.6391 168.362 15.7044 168.362 14.5541C168.362 13.4038 168.042 12.4695 167.402 11.7508C166.762 11.0317 165.94 10.6725 164.934 10.6725C163.898 10.6725 163.06 11.0317 162.421 11.7508Z" fill="black"/>
<path d="M174.051 3.14795H177.022V20.9283H174.051V3.14795Z" fill="black"/>
<path d="M192.124 8.10829V20.9283H189.131V18.5558C188.309 20.2176 186.892 21.0479 184.881 21.0479C183.51 21.0479 182.429 20.6088 181.636 19.7301C180.844 18.8517 180.448 17.6534 180.448 16.1356V8.10791H183.442V15.2249C183.442 16.12 183.673 16.8223 184.138 17.3335C184.603 17.845 185.246 18.1002 186.069 18.1002C187.013 18.0846 187.759 17.733 188.308 17.0459C188.856 16.3592 189.131 15.4884 189.131 14.4341V8.10791H192.124V8.10829Z" fill="black"/>
<path d="M202.977 20.1374C202.002 20.7606 200.982 21.0721 199.915 21.0721C198.865 21.0721 198.004 20.7488 197.334 20.1016C196.663 19.4545 196.328 18.5 196.328 17.2381V10.9119H194.615L194.592 8.63527H196.328V5.11279H199.276V8.63527H202.772V10.9119H199.276V16.6869C199.276 17.2781 199.382 17.6974 199.595 17.945C199.809 18.193 200.128 18.3164 200.555 18.3164C201.012 18.3164 201.591 18.1408 202.292 17.7892L202.977 20.1374Z" fill="black"/>
<path d="M207.981 3.12383C208.301 3.4754 208.461 3.92295 208.461 4.46572C208.461 4.99287 208.301 5.43242 207.981 5.7836C207.661 6.13516 207.257 6.31075 206.77 6.31075C206.282 6.31075 205.879 6.13516 205.559 5.7836C205.239 5.43242 205.079 4.99287 205.079 4.46572C205.079 3.92295 205.239 3.4754 205.559 3.12383C205.879 2.77265 206.282 2.59668 206.77 2.59668C207.257 2.59668 207.661 2.77265 207.981 3.12383ZM205.308 8.10818H208.278V20.9282H205.308V8.10818Z" fill="black"/>
<path d="M220.65 8.82743C221.617 9.37058 222.372 10.1335 222.913 11.1158C223.453 12.0985 223.723 13.2286 223.723 14.5065C223.723 15.8004 223.453 16.9427 222.913 17.933C222.371 18.9237 221.617 19.6905 220.65 20.2336C219.683 20.7768 218.567 21.0483 217.303 21.0483C216.024 21.0483 214.896 20.7771 213.922 20.2336C212.946 19.6905 212.189 18.9237 211.648 17.933C211.107 16.9427 210.837 15.8004 210.837 14.5065C210.837 13.2286 211.107 12.0981 211.648 11.1158C212.189 10.1335 212.946 9.37058 213.922 8.82743C214.896 8.28466 216.024 8.0127 217.303 8.0127C218.568 8.01231 219.683 8.28427 220.65 8.82743ZM214.79 11.7508C214.15 12.4695 213.83 13.4042 213.83 14.5541C213.83 15.7044 214.15 16.6391 214.79 17.3579C215.43 18.077 216.267 18.4362 217.304 18.4362C218.309 18.4362 219.131 18.077 219.771 17.3579C220.411 16.6391 220.731 15.7044 220.731 14.5541C220.731 13.4038 220.411 12.4695 219.771 11.7508C219.131 11.0317 218.309 10.6725 217.304 10.6725C216.267 10.6725 215.43 11.0317 214.79 11.7508Z" fill="black"/>
<path d="M236.976 9.31797C237.783 10.2047 238.187 11.4068 238.187 12.9243V20.9279H235.194V13.835C235.194 12.9406 234.95 12.2337 234.463 11.7142C233.975 11.1954 233.312 10.9356 232.475 10.9356C231.484 10.9516 230.704 11.3032 230.133 11.9899C229.562 12.6771 229.276 13.5558 229.276 14.6257V20.9279H226.306V8.10788H229.276V10.5044C230.114 8.85938 231.576 8.02066 233.664 7.98828C235.064 7.9879 236.169 8.43126 236.976 9.31797Z" fill="black"/>
<path d="M246.927 10.7199C246.294 10.5127 245.712 10.4083 245.178 10.4083C244.676 10.4083 244.276 10.5005 243.979 10.6841C243.682 10.8681 243.533 11.1514 243.533 11.5346C243.533 11.9342 243.719 12.2416 244.093 12.4571C244.466 12.6727 245.056 12.9005 245.864 13.1401C246.717 13.4117 247.418 13.6794 247.966 13.9426C248.514 14.2062 248.99 14.5977 249.394 15.1169C249.798 15.6364 250 16.3194 250 17.1657C250 18.4116 249.543 19.3703 248.629 20.0415C247.715 20.7122 246.564 21.0478 245.178 21.0478C244.234 21.0478 243.312 20.892 242.413 20.5804C241.514 20.2688 240.753 19.8255 240.129 19.2503L241.157 17.0697C241.705 17.5653 242.36 17.9526 243.122 18.2318C243.883 18.5114 244.607 18.6512 245.292 18.6512C245.841 18.6512 246.278 18.5514 246.606 18.3514C246.933 18.1518 247.097 17.8525 247.097 17.4529C247.097 17.0057 246.907 16.6702 246.526 16.4462C246.145 16.2226 245.528 15.9754 244.675 15.7035C243.853 15.4483 243.182 15.1965 242.665 14.9486C242.147 14.7014 241.697 14.3254 241.317 13.8223C240.936 13.3191 240.745 12.6602 240.745 11.8454C240.745 10.5839 241.183 9.62103 242.059 8.9579C242.935 8.29514 244.036 7.96338 245.361 7.96338C246.168 7.96338 246.964 8.08336 247.749 8.32294C248.534 8.56252 249.23 8.89809 249.84 9.32925L248.765 11.5818C248.171 11.2154 247.558 10.9279 246.927 10.7199Z" fill="black"/>
<path d="M64.2187 26.1248C62.9458 26.1248 62.3097 26.4249 62.3097 27.0248V27.2911H66.143V27.9889H62.3097V32.3051H60.9567V27.9889H58.807V27.2911H60.9567V27.0892C60.9567 26.5567 61.2295 26.145 61.776 25.854C62.3222 25.563 63.0859 25.4175 64.0686 25.4175C64.7698 25.4175 65.4615 25.4819 66.143 25.6102V26.3358C65.5114 26.1953 64.87 26.1248 64.2187 26.1248Z" fill="black"/>
<path d="M71.87 32.3967C70.7578 32.3967 69.9008 32.1811 69.2994 31.7492C68.698 31.3176 68.3974 30.7071 68.3974 29.9171C68.3974 29.0414 68.7281 28.3638 69.3897 27.8831C70.0509 27.4025 70.9776 27.1621 72.1705 27.1621C73.2828 27.1621 74.142 27.3762 74.7488 27.8051C75.3548 28.2336 75.6584 28.8426 75.6584 29.6326C75.6584 30.514 75.3278 31.1954 74.6661 31.6757C74.0045 32.1567 73.0725 32.3967 71.87 32.3967ZM70.2992 31.2167C70.6348 31.4955 71.2088 31.6349 72.0205 31.6349C72.8322 31.6349 73.4058 31.4925 73.7417 31.2079C74.0773 30.923 74.2453 30.4408 74.2453 29.7613C74.2453 29.0879 74.0773 28.6133 73.7417 28.3383C73.4058 28.0625 72.8322 27.925 72.0205 27.925C71.2187 27.925 70.6474 28.0656 70.3069 28.3471C69.966 28.6286 69.7957 29.1092 69.7957 29.7887C69.7957 30.4622 69.9633 30.9383 70.2992 31.2167Z" fill="black"/>
<path d="M78.5292 31.2304C79.4814 31.5001 80.4382 31.6349 81.4003 31.6349C82.7232 31.6349 83.3844 31.4113 83.3844 30.9642C83.3844 30.7501 83.2164 30.5818 82.8809 30.4595C82.5449 30.3372 82.1393 30.2454 81.6631 30.1837C81.187 30.1228 80.7109 30.0519 80.2352 29.9723C79.7591 29.8927 79.3534 29.7457 79.0175 29.5316C78.6815 29.3176 78.5139 29.0357 78.5139 28.6868C78.5139 28.2275 78.7821 27.8588 79.3184 27.58C79.8543 27.3015 80.6237 27.1621 81.6258 27.1621C82.5979 27.1621 83.5299 27.2722 84.4219 27.4927V28.2736C83.5501 28.0408 82.6832 27.9247 81.8212 27.9247C80.5285 27.9247 79.8821 28.1543 79.8821 28.6133C79.8821 28.846 80.0497 29.0251 80.3856 29.1504C80.7212 29.2761 81.1299 29.3694 81.6106 29.4303C82.0916 29.4916 82.5727 29.5625 83.0538 29.6417C83.5348 29.7213 83.9428 29.8653 84.2787 30.0736C84.6143 30.2816 84.7823 30.56 84.7823 30.9089C84.7823 31.3561 84.5042 31.7157 83.9481 31.988C83.392 32.2607 82.5826 32.3967 81.5203 32.3967C80.3776 32.3967 79.3805 32.2714 78.5288 32.0204L78.5292 31.2304Z" fill="black"/>
<path d="M94.4786 27.9886H90.8708V30.6061C90.8708 30.955 91.006 31.2136 91.2764 31.382C91.5469 31.5503 92.0028 31.6345 92.6442 31.6345C93.2856 31.6345 93.897 31.5549 94.4782 31.3957V32.1853C93.8166 32.3258 93.1603 32.3967 92.509 32.3967C91.5168 32.3967 90.7702 32.2454 90.2694 31.9423C89.7681 31.6391 89.5175 31.2304 89.5175 30.7162V27.9886H87.6085V27.4561L89.5175 27.2542L89.8332 26.1245H90.8704V27.2542H94.4782V27.9886H94.4786Z" fill="black"/>
<path d="M104.55 29.6333C104.55 29.8352 104.544 29.9883 104.535 30.0923H98.6574C98.7175 30.6431 98.9453 31.0381 99.3415 31.2769C99.7372 31.5157 100.321 31.6349 101.093 31.6349C102.075 31.6349 103.017 31.4635 103.919 31.1203V31.9099C103.006 32.2348 102.02 32.3967 100.957 32.3967C99.7947 32.3967 98.8851 32.1853 98.2289 31.7629C97.5726 31.3409 97.2443 30.7314 97.2443 29.9354C97.2443 29.0848 97.5852 28.4095 98.2666 27.9106C98.948 27.4116 99.8998 27.1621 101.123 27.1621C102.235 27.1621 103.084 27.375 103.67 27.8005C104.256 28.2263 104.55 28.8373 104.55 29.6333ZM101.017 27.925C100.256 27.925 99.6892 28.0366 99.3186 28.2602C98.9476 28.4838 98.7324 28.8586 98.6722 29.385H103.137C103.086 28.8525 102.904 28.4758 102.588 28.2553C102.272 28.0351 101.749 27.925 101.017 27.925Z" fill="black"/>
<path d="M114.365 27.9702C112.792 27.9702 111.479 28.2273 110.427 28.7415V31.57H113.554V32.3048H106.94V31.57H109.074V27.9885H107.391V27.2541H110.097L110.352 28.2548C110.813 27.8876 111.412 27.5969 112.149 27.3825C112.885 27.1684 113.624 27.061 114.365 27.061V27.9702Z" fill="black"/>
<path d="M121.281 31.5703H123.566V32.305H116.952V31.5703H119.928V27.9887H117.402V27.2544H121.281V31.5703ZM121.521 25.1328V26.3635H119.703V25.1328H121.521Z" fill="black"/>
<path d="M130.886 27.1626C131.598 27.1626 132.151 27.291 132.547 27.5484C132.943 27.8055 133.141 28.1849 133.141 28.6873V32.3054H131.803V28.7974C131.803 28.1792 131.352 27.8699 130.45 27.8699C130.009 27.8699 129.591 27.9556 129.195 28.127C128.799 28.2984 128.32 28.6012 127.759 29.0362V32.3054H126.421V27.2548H127.429L127.684 28.4393C128.546 27.588 129.614 27.1626 130.886 27.1626Z" fill="black"/>
<path d="M137.996 31.1206C139.84 31.1328 141.21 31.2444 142.107 31.4558C143.004 31.6672 143.452 32.018 143.452 32.5074C143.452 33.0647 142.842 33.4764 141.619 33.7427C140.396 34.0089 138.447 34.1422 135.771 34.1422V33.3709C137.344 33.3709 138.602 33.3355 139.544 33.2654C140.486 33.195 141.138 33.1012 141.498 32.9854C141.859 32.8689 142.04 32.7223 142.04 32.5448C142.04 32.0549 140.511 31.81 137.455 31.81L136.673 31.3232L137.41 30.0194C136.458 29.7806 135.982 29.3643 135.982 28.7705C135.982 28.2624 136.29 27.8674 136.906 27.5859C137.523 27.3045 138.382 27.1635 139.484 27.1635C140.106 27.1635 140.657 27.2157 141.138 27.3197L141.724 26.3096H143.288L141.874 27.5585C142.425 27.8217 142.701 28.1771 142.701 28.6239C142.701 29.1198 142.393 29.5068 141.777 29.7856C141.16 30.0644 140.306 30.2034 139.214 30.2034C138.892 30.2034 138.572 30.1882 138.252 30.1577L137.996 31.1206ZM140.837 28.1039C140.526 27.9847 140.03 27.9249 139.349 27.9249C138.667 27.9249 138.171 27.9843 137.861 28.1039C137.55 28.2232 137.395 28.4148 137.395 28.6779C137.395 28.9411 137.55 29.1324 137.861 29.252C138.171 29.3712 138.667 29.431 139.349 29.431C140.03 29.431 140.526 29.3716 140.837 29.252C141.147 29.1327 141.303 28.9415 141.303 28.6779C141.303 28.4148 141.148 28.2232 140.837 28.1039Z" fill="black"/>
<path d="M159.763 31.5703H162.048V32.305H155.433V31.5703H158.41V27.9887H155.884V27.2544H159.763V31.5703ZM160.003 25.1328V26.3635H158.185V25.1328H160.003Z" fill="black"/>
<path d="M169.368 27.1626C170.079 27.1626 170.633 27.291 171.029 27.5484C171.425 27.8055 171.623 28.1849 171.623 28.6873V32.3054H170.285V28.7974C170.285 28.1792 169.834 27.8699 168.932 27.8699C168.491 27.8699 168.073 27.9556 167.677 28.127C167.281 28.2984 166.802 28.6012 166.241 29.0362V32.3054H164.903V27.2548H165.911L166.166 28.4393C167.028 27.588 168.095 27.1626 169.368 27.1626Z" fill="black"/>
<path d="M178.988 27.1626C179.7 27.1626 180.253 27.291 180.65 27.5484C181.045 27.8055 181.243 28.1849 181.243 28.6873V32.3054H179.906V28.7974C179.906 28.1792 179.454 27.8699 178.552 27.8699C178.112 27.8699 177.693 27.9556 177.297 28.127C176.901 28.2984 176.423 28.6012 175.862 29.0362V32.3054H174.524V27.2548H175.531L175.787 28.4393C176.648 27.588 177.716 27.1626 178.988 27.1626Z" fill="black"/>
<path d="M187.316 32.3967C186.204 32.3967 185.347 32.1811 184.746 31.7492C184.145 31.3176 183.844 30.7071 183.844 29.9171C183.844 29.0414 184.175 28.3638 184.836 27.8831C185.497 27.4025 186.424 27.1621 187.617 27.1621C188.729 27.1621 189.589 27.3762 190.195 27.8051C190.801 28.2336 191.105 28.8426 191.105 29.6326C191.105 30.514 190.774 31.1954 190.113 31.6757C189.452 32.156 188.519 32.3967 187.316 32.3967ZM185.746 31.2167C186.081 31.4955 186.655 31.6349 187.467 31.6349C188.278 31.6349 188.852 31.4925 189.188 31.2079C189.524 30.923 189.692 30.4408 189.692 29.7613C189.692 29.0879 189.524 28.6133 189.188 28.3383C188.852 28.0625 188.278 27.925 187.467 27.925C186.665 27.925 186.094 28.0656 185.753 28.3471C185.412 28.6286 185.242 29.1092 185.242 29.7887C185.242 30.4622 185.41 30.9383 185.746 31.2167Z" fill="black"/>
<path d="M199.688 27.2544H201.011C200.44 28.7787 199.402 30.4623 197.899 32.305H196.276C194.773 30.4623 193.735 28.7787 193.164 27.2544H194.487C195.028 28.5829 195.895 30.0463 197.087 31.6438C198.31 30.0033 199.177 28.5399 199.688 27.2544Z" fill="black"/>
<path d="M210.24 32.3053H208.902L208.602 31.3043C208.04 32.0329 207.083 32.3971 205.731 32.3971C204.939 32.3971 204.323 32.2763 203.882 32.0345C203.441 31.7926 203.22 31.4544 203.22 31.0198C203.22 30.4503 203.626 30.0203 204.438 29.7293C205.25 29.4383 206.578 29.2901 208.422 29.2837V28.8521C208.422 28.2339 207.856 27.9246 206.723 27.9246C205.821 27.9246 204.899 28.0682 203.957 28.3562V27.5662C204.979 27.2969 205.956 27.1621 206.888 27.1621C207.8 27.1621 208.509 27.3046 209.015 27.5891C209.521 27.874 209.774 28.2675 209.774 28.7691V30.7528L210.24 32.3053ZM206.047 31.6349C206.748 31.6349 207.319 31.5031 207.76 31.2399C208.201 30.9771 208.422 30.6431 208.422 30.2389V29.8348C207.059 29.8409 206.084 29.922 205.498 30.0782C204.912 30.2344 204.618 30.4991 204.618 30.8727C204.619 31.3809 205.094 31.6349 206.047 31.6349Z" fill="black"/>
<path d="M219.545 27.9886H215.937V30.6061C215.937 30.955 216.072 31.2136 216.343 31.382C216.614 31.5503 217.07 31.6345 217.711 31.6345C218.353 31.6345 218.964 31.5549 219.545 31.3957V32.1853C218.883 32.3258 218.227 32.3967 217.576 32.3967C216.584 32.3967 215.837 32.2454 215.336 31.9423C214.835 31.6391 214.584 31.2304 214.584 30.7162V27.9886H212.675V27.4561L214.584 27.2542L214.9 26.1245H215.937V27.2542H219.545L219.545 27.9886Z" fill="black"/>
<path d="M227.107 31.5703H229.392V32.305H222.777V31.5703H225.754V27.9887H223.228V27.2544H227.107V31.5703ZM227.347 25.1328V26.3635H225.529V25.1328H227.347Z" fill="black"/>
<path d="M235.419 32.3967C234.307 32.3967 233.45 32.1811 232.848 31.7492C232.247 31.3176 231.947 30.7071 231.947 29.9171C231.947 29.0414 232.278 28.3638 232.939 27.8831C233.6 27.4025 234.527 27.1621 235.72 27.1621C236.832 27.1621 237.692 27.3762 238.298 27.8051C238.904 28.2336 239.207 28.8426 239.207 29.6326C239.207 30.514 238.877 31.1954 238.216 31.6757C237.554 32.156 236.622 32.3967 235.419 32.3967ZM233.848 31.2167C234.184 31.4955 234.758 31.6349 235.57 31.6349C236.381 31.6349 236.955 31.4925 237.291 31.2079C237.627 30.923 237.794 30.4408 237.794 29.7613C237.794 29.0879 237.627 28.6133 237.291 28.3383C236.955 28.0625 236.381 27.925 235.57 27.925C234.768 27.925 234.197 28.0656 233.856 28.3471C233.515 28.6286 233.345 29.1092 233.345 29.7887C233.345 30.4622 233.512 30.9383 233.848 31.2167Z" fill="black"/>
<path d="M246.332 27.1626C247.044 27.1626 247.597 27.291 247.993 27.5484C248.389 27.8055 248.587 28.1849 248.587 28.6873V32.3054H247.249V28.7974C247.249 28.1792 246.798 27.8699 245.896 27.8699C245.455 27.8699 245.037 27.9556 244.641 28.127C244.245 28.2984 243.766 28.6012 243.205 29.0362V32.3054H241.867V27.2548H242.875L243.13 28.4393C243.992 27.588 245.06 27.1626 246.332 27.1626Z" fill="black"/>
</svg>
