<svg width="200" height="46" viewBox="0 0 200 46" fill="none" xmlns="http://www.w3.org/2000/svg">
<path d="M43.1035 1.21968V28.2322C43.1035 28.4415 42.9972 28.6366 42.821 28.7496L38.8982 31.2735L38.3137 31.6499L34.4728 34.1217C34.0633 34.3853 33.5245 34.0909 33.5245 33.6043V29.3727C33.5245 29.1634 33.6309 28.9684 33.807 28.8553L34.4734 28.4266L38.0316 26.1367C38.2077 26.0233 38.314 25.8286 38.314 25.6193V9.99664C38.314 9.50971 37.7753 9.21566 37.3658 9.47924L28.736 15.0332L25.6233 17.0364L23.9465 18.1154L21.1986 19.8837L19.1573 21.1973L17.5771 22.2144C17.2008 22.4567 17.2008 23.007 17.5771 23.2492L19.157 24.2661L21.1983 25.5797L23.9462 27.3479L25.623 28.4272L28.4535 30.2488C28.6296 30.3621 28.736 30.5569 28.736 30.7662V37.4787C28.736 37.6881 28.6296 37.8831 28.4535 37.9961L25.623 39.8177L23.9462 40.8967L21.1983 42.6652L19.157 43.9788L17.106 45.2986C16.903 45.429 16.6428 45.429 16.4399 45.2986L14.3678 43.9655L13.152 43.1829C12.7757 42.9407 12.7757 42.3901 13.152 42.1481L14.3678 41.3659L16.7732 39.818L19.157 38.2838L21.1983 36.9701L23.6637 35.3838C23.8398 35.2705 23.9462 35.0758 23.9462 34.8664V33.3791C23.9462 33.1698 23.8398 32.9748 23.6637 32.8617L21.1983 31.2754L19.157 29.9617L16.7732 28.4275L14.3678 26.8796L12.3479 25.58L9.86051 23.979C9.68439 23.8657 9.57805 23.6709 9.57805 23.4616V22.0029C9.57805 21.7936 9.68439 21.5986 9.86051 21.4855L12.3479 19.8846L14.3678 18.5847L15.9691 17.5544C16.3457 17.3122 16.3457 16.7616 15.9691 16.5193L14.3678 15.4888L9.57835 12.4066L5.73774 9.93478C5.32821 9.6712 4.78948 9.96525 4.78948 10.4522V26.0748C4.78948 26.2842 4.89582 26.4792 5.07195 26.5922L7.92315 28.4272L9.57866 29.4922L12.3485 31.2748L14.3684 32.5747L15.9691 33.6046C16.3457 33.8468 16.3457 34.3975 15.9691 34.6397L14.3684 35.6696L12.6816 36.7553C12.4786 36.8857 12.2184 36.886 12.0154 36.7553L9.57866 35.1873L7.92345 34.1223L4.78948 32.1051L3.49811 31.2744L0.282465 29.2052C0.106341 29.0918 0 28.8971 0 28.6878V1.67523C0 1.1883 0.538733 0.89425 0.948267 1.15783L4.78887 3.62935L9.57805 6.71152L14.3675 9.7937L19.1567 12.8759L20.8649 13.975C21.0679 14.1054 21.3281 14.1054 21.531 13.975L23.9459 12.4206L28.7354 9.33846L33.5245 6.25629L38.3137 3.17472L42.1549 0.702886C42.5648 0.4387 43.1035 0.732753 43.1035 1.21968Z" fill="#D71F26"/>
<path d="M46.072 3.92676H48.8687L53.1094 12.5727L57.3135 3.92676H60.1102V17.346H57.8617V7.72257L53.8767 15.9657H52.3047L48.3013 7.72257V17.346H46.0714V3.92676H46.072Z" fill="white"/>
<path d="M67.4861 9.17942C66.9802 9.01366 66.514 8.93017 66.0877 8.93017C65.6858 8.93017 65.3659 9.00391 65.1282 9.15078C64.8905 9.29796 64.772 9.52466 64.772 9.83121C64.772 10.1508 64.921 10.3968 65.2199 10.5692C65.5182 10.7417 65.9905 10.9239 66.6365 11.1156C67.3188 11.3328 67.8795 11.547 68.3182 11.7576C68.757 11.9682 69.1376 12.2817 69.4609 12.697C69.7836 13.1127 69.9451 13.659 69.9451 14.3361C69.9451 15.3328 69.5794 16.0998 68.8484 16.6367C68.1174 17.1733 67.1969 17.4417 66.088 17.4417C65.3324 17.4417 64.5953 17.3171 63.8764 17.0678C63.1573 16.8186 62.5482 16.4639 62.0485 16.0038L62.8712 14.2593C63.3097 14.6557 63.8338 14.9656 64.4432 15.189C65.0526 15.4126 65.6313 15.5245 66.1798 15.5245C66.6182 15.5245 66.9687 15.4446 67.2307 15.2847C67.4925 15.125 67.6238 14.8855 67.6238 14.5658C67.6238 14.2081 67.4714 13.9396 67.1667 13.7605C66.862 13.5816 66.3684 13.3839 65.6861 13.1663C65.028 12.9621 64.4916 12.7607 64.0775 12.5624C63.6631 12.3646 63.3036 12.0638 62.9992 11.6613C62.6945 11.2588 62.5421 10.7316 62.5421 10.0799C62.5421 9.07064 62.8922 8.30033 63.5934 7.76983C64.2939 7.23962 65.1745 6.97421 66.2346 6.97421C66.8806 6.97421 67.5168 7.0702 68.1449 7.26186C68.7723 7.45353 69.3299 7.72198 69.8174 8.06691L68.9584 9.86899C68.4822 9.57585 67.9916 9.34579 67.4861 9.17942Z" fill="white"/>
<path d="M77.6949 16.7134C76.9148 17.2119 76.0982 17.4612 75.2453 17.4612C74.4043 17.4612 73.7156 17.2025 73.1796 16.6848C72.6433 16.1671 72.3752 15.4035 72.3752 14.394V9.33298H71.0043L70.986 7.51171H72.3752V4.69373H74.7334V7.51171H77.53V9.33298H74.7334V13.953C74.7334 14.426 74.8184 14.7614 74.9893 14.9595C75.16 15.1579 75.4156 15.2566 75.7572 15.2566C76.1229 15.2566 76.5857 15.1161 77.1464 14.8349L77.6949 16.7134Z" fill="white"/>
<path d="M85.3356 17.346V16.1001C84.9943 16.5477 84.5555 16.8862 84.0195 17.116C83.4832 17.346 82.868 17.4609 82.1733 17.4609C81.4907 17.4609 80.8907 17.3238 80.3727 17.0486C79.8544 16.7741 79.4555 16.3938 79.1752 15.9081C78.8949 15.4224 78.755 14.8794 78.755 14.2785C78.755 13.3199 79.0777 12.5694 79.7237 12.0261C80.3694 11.4831 81.2835 11.2052 82.4658 11.1921H85.3173V10.9236C85.3173 10.323 85.1281 9.8568 84.7508 9.52436C84.373 9.19222 83.8245 9.02585 83.1057 9.02585C82.1793 9.02585 81.2107 9.34549 80.199 9.98447L79.34 8.25919C80.1079 7.81187 80.8054 7.48948 81.4331 7.29112C82.0608 7.09336 82.7949 6.99402 83.6359 6.99402C84.9032 6.99402 85.8871 7.31366 86.5879 7.95264C87.2885 8.59193 87.645 9.48627 87.6572 10.6366L87.6755 17.346H85.3356ZM84.4949 15.036C84.9821 14.6975 85.2563 14.2788 85.3173 13.7803V12.8601H82.8497C82.2159 12.8601 81.7497 12.9594 81.4514 13.1575C81.1528 13.3555 81.0035 13.6782 81.0035 14.1255C81.0035 14.56 81.1589 14.9053 81.4697 15.1606C81.7805 15.4163 82.2037 15.544 82.74 15.544C83.4223 15.544 84.0073 15.3748 84.4949 15.036Z" fill="white"/>
<path d="M94.5117 9.19862C93.7194 9.19862 93.0768 9.47987 92.5835 10.0421C92.0898 10.6046 91.843 11.3331 91.843 12.2275C91.843 13.1477 92.0898 13.8891 92.5835 14.4513C93.0768 15.0138 93.7197 15.2947 94.5117 15.2947C95.6818 15.2947 96.5591 14.8922 97.1441 14.0871L98.6247 15.3715C98.1859 16.0361 97.607 16.5474 96.8882 16.9051C96.169 17.2628 95.3344 17.4417 94.3837 17.4417C93.4211 17.4417 92.5649 17.2248 91.8156 16.7899C91.066 16.3554 90.484 15.7451 90.0699 14.9592C89.6555 14.1731 89.4483 13.2693 89.4483 12.2467C89.4483 11.2115 89.6585 10.298 90.079 9.50546C90.4995 8.7132 91.0846 8.09981 91.8339 7.66499C92.5835 7.23077 93.4452 7.01321 94.4203 7.01321C95.3097 7.01321 96.1047 7.17623 96.8059 7.50197C97.5064 7.8277 98.0762 8.29117 98.5147 8.89176L97.0707 10.3294C96.4128 9.57585 95.5596 9.19862 94.5117 9.19862Z" fill="white"/>
<path d="M107.271 17.346L104.62 12.86L103.121 14.5088V17.346H100.745V3.1217H103.121V11.3648L107.143 7.10888H109.884L106.265 11.058L110.104 17.3457L107.271 17.346Z" fill="white"/>
<path d="M122.305 6.39983C121.617 6.16977 121.01 6.05489 120.486 6.05489C119.902 6.05489 119.438 6.16977 119.097 6.39983C118.756 6.62988 118.585 6.94953 118.585 7.35845C118.585 7.72929 118.704 8.03888 118.942 8.28813C119.179 8.53739 119.478 8.74185 119.837 8.90152C120.197 9.06149 120.687 9.23701 121.309 9.42868C122.174 9.69713 122.884 9.96557 123.438 10.234C123.992 10.5025 124.465 10.8986 124.855 11.4224C125.244 11.9465 125.439 12.6367 125.439 13.4926C125.439 14.3108 125.23 15.0232 124.809 15.6302C124.389 16.2375 123.81 16.701 123.072 17.0203C122.335 17.3399 121.492 17.4996 120.541 17.4996C119.541 17.4996 118.567 17.3049 117.616 16.9149C116.666 16.5251 115.836 16.0044 115.13 15.3526L116.154 13.1672C116.799 13.7937 117.525 14.2855 118.329 14.6432C119.133 15.0013 119.883 15.1801 120.577 15.1801C121.26 15.1801 121.796 15.043 122.186 14.7679C122.575 14.4933 122.771 14.1194 122.771 13.6465C122.771 13.2632 122.652 12.9469 122.414 12.6976C122.177 12.4484 121.875 12.247 121.509 12.094C121.144 11.9407 120.644 11.768 120.01 11.5763C119.145 11.3078 118.438 11.0461 117.89 10.7901C117.342 10.5348 116.872 10.1481 116.483 9.63039C116.092 9.11268 115.898 8.43226 115.898 7.58881C115.898 6.80935 116.095 6.12893 116.492 5.54724C116.888 4.96584 117.448 4.51548 118.174 4.19584C118.898 3.8765 119.736 3.71652 120.687 3.71652C121.516 3.71652 122.335 3.8442 123.145 4.09985C123.956 4.3555 124.678 4.70075 125.311 5.13496L124.324 7.37795C123.667 6.95593 122.994 6.62988 122.305 6.39983Z" fill="white"/>
<path d="M134.625 7.6653C135.399 8.09982 136.002 8.71016 136.435 9.49602C136.867 10.2822 137.083 11.1863 137.083 12.2086C137.083 13.2437 136.867 14.1575 136.435 14.9498C136.002 15.7423 135.399 16.3557 134.625 16.7902C133.851 17.2248 132.959 17.442 131.947 17.442C130.924 17.442 130.022 17.2251 129.242 16.7902C128.462 16.3557 127.855 15.7423 127.423 14.9498C126.99 14.1575 126.774 13.2437 126.774 12.2086C126.774 11.1863 126.99 10.2819 127.423 9.49602C127.855 8.71016 128.462 8.09982 129.242 7.6653C130.022 7.23109 130.924 7.01352 131.947 7.01352C132.959 7.01321 133.851 7.23078 134.625 7.6653ZM129.937 10.004C129.425 10.579 129.169 11.3267 129.169 12.2467C129.169 13.1669 129.425 13.9147 129.937 14.4897C130.449 15.065 131.119 15.3523 131.947 15.3523C132.752 15.3523 133.41 15.065 133.922 14.4897C134.434 13.9147 134.69 13.1669 134.69 12.2467C134.69 11.3264 134.434 10.579 133.922 10.004C133.41 9.42868 132.752 9.14133 131.947 9.14133C131.118 9.14133 130.448 9.42868 129.937 10.004Z" fill="white"/>
<path d="M139.241 3.1217H141.617V17.346H139.241V3.1217Z" fill="white"/>
<path d="M153.699 7.09V17.346H151.305V15.448C150.647 16.7774 149.513 17.4417 147.905 17.4417C146.808 17.4417 145.943 17.0904 145.309 16.3874C144.675 15.6847 144.358 14.7261 144.358 13.5118V7.08969H146.753V12.7833C146.753 13.4993 146.938 14.0612 147.311 14.4702C147.682 14.8794 148.197 15.0835 148.855 15.0835C149.611 15.071 150.207 14.7898 150.647 14.2401C151.085 13.6907 151.304 12.9941 151.304 12.1507V7.08969H153.699V7.09Z" fill="white"/>
<path d="M162.382 16.7134C161.602 17.2119 160.785 17.4612 159.932 17.4612C159.092 17.4612 158.403 17.2025 157.867 16.6848C157.33 16.1671 157.063 15.4035 157.063 14.394V9.33298H155.692L155.673 7.51171H157.063V4.69373H159.42V7.51171H162.217V9.33298H159.42V13.953C159.42 14.426 159.505 14.7614 159.676 14.9595C159.847 15.1579 160.103 15.2566 160.444 15.2566C160.81 15.2566 161.273 15.1161 161.834 14.8349L162.382 16.7134Z" fill="white"/>
<path d="M166.385 3.10251C166.641 3.38376 166.769 3.7418 166.769 4.17602C166.769 4.59774 166.641 4.94938 166.385 5.23032C166.129 5.51157 165.806 5.65205 165.416 5.65205C165.026 5.65205 164.703 5.51157 164.447 5.23032C164.191 4.94938 164.063 4.59774 164.063 4.17602C164.063 3.7418 164.191 3.38376 164.447 3.10251C164.703 2.82156 165.026 2.68079 165.416 2.68079C165.806 2.68079 166.129 2.82156 166.385 3.10251ZM164.246 7.08999H166.622V17.346H164.246V7.08999Z" fill="white"/>
<path d="M176.52 7.6653C177.294 8.09982 177.897 8.71016 178.33 9.49602C178.762 10.2822 178.979 11.1863 178.979 12.2086C178.979 13.2437 178.762 14.1575 178.33 14.9498C177.897 15.7423 177.294 16.3557 176.52 16.7902C175.746 17.2248 174.854 17.442 173.843 17.442C172.819 17.442 171.917 17.2251 171.137 16.7902C170.357 16.3557 169.751 15.7423 169.318 14.9498C168.886 14.1575 168.669 13.2437 168.669 12.2086C168.669 11.1863 168.886 10.2819 169.318 9.49602C169.751 8.71016 170.357 8.09982 171.137 7.6653C171.917 7.23109 172.819 7.01352 173.843 7.01352C174.854 7.01321 175.746 7.23078 176.52 7.6653ZM171.832 10.004C171.32 10.579 171.064 11.3267 171.064 12.2467C171.064 13.1669 171.32 13.9147 171.832 14.4897C172.344 15.065 173.014 15.3523 173.843 15.3523C174.647 15.3523 175.305 15.065 175.817 14.4897C176.329 13.9147 176.585 13.1669 176.585 12.2467C176.585 11.3264 176.329 10.579 175.817 10.004C175.305 9.42868 174.647 9.14133 173.843 9.14133C173.014 9.14133 172.344 9.42868 171.832 10.004Z" fill="white"/>
<path d="M189.581 8.05808C190.227 8.76745 190.55 9.72913 190.55 10.9431V17.346H188.155V11.6717C188.155 10.9562 187.96 10.3907 187.57 9.97503C187.18 9.56001 186.65 9.3522 185.98 9.3522C185.188 9.36499 184.564 9.64625 184.106 10.1956C183.649 10.7453 183.421 11.4483 183.421 12.3043V17.346H181.045V7.09H183.421V9.00726C184.091 7.6912 185.261 7.02022 186.931 6.99432C188.051 6.99402 188.935 7.3487 189.581 8.05808Z" fill="white"/>
<path d="M197.541 9.17942C197.035 9.01366 196.569 8.93017 196.143 8.93017C195.741 8.93017 195.421 9.00391 195.183 9.15078C194.946 9.29796 194.827 9.52466 194.827 9.83121C194.827 10.1508 194.976 10.3968 195.275 10.5692C195.573 10.7417 196.045 10.9239 196.691 11.1156C197.373 11.3328 197.934 11.547 198.373 11.7576C198.812 11.9685 199.192 12.2817 199.516 12.697C199.838 13.1127 200 13.659 200 14.3361C200 15.3328 199.634 16.0998 198.903 16.6367C198.172 17.1733 197.251 17.4417 196.143 17.4417C195.387 17.4417 194.65 17.3171 193.931 17.0678C193.212 16.8186 192.602 16.4639 192.103 16.0038L192.925 14.2593C193.364 14.6557 193.888 14.9656 194.498 15.189C195.107 15.4126 195.686 15.5245 196.234 15.5245C196.673 15.5245 197.023 15.4446 197.285 15.2847C197.547 15.125 197.678 14.8855 197.678 14.5658C197.678 14.2081 197.525 13.9396 197.221 13.7605C196.916 13.5816 196.423 13.3839 195.74 13.1663C195.082 12.9621 194.546 12.7607 194.132 12.5624C193.717 12.3646 193.358 12.0638 193.053 11.6613C192.749 11.2588 192.596 10.7316 192.596 10.0799C192.596 9.07064 192.947 8.30033 193.647 7.76983C194.348 7.23962 195.229 6.97421 196.289 6.97421C196.935 6.97421 197.571 7.0702 198.199 7.26186C198.827 7.45353 199.384 7.72198 199.872 8.06691L199.012 9.86899C198.537 9.57585 198.046 9.34579 197.541 9.17942Z" fill="white"/>
<path d="M51.3963 21.4919C50.374 21.4919 49.863 21.733 49.863 22.2147V22.4286H52.9418V22.989H49.863V26.4557H48.7764V22.989H47.0499V22.4286H48.7764V22.2665C48.7764 21.8387 48.9955 21.5081 49.4342 21.2744C49.8727 21.041 50.4864 20.9243 51.2753 20.9243C51.8387 20.9243 52.3939 20.9758 52.9415 21.079V21.6617C52.4345 21.5486 51.9192 21.4919 51.3963 21.4919Z" fill="white"/>
<path d="M57.5415 26.5297C56.6481 26.5297 55.96 26.3564 55.477 26.0096C54.9941 25.6628 54.7527 25.1726 54.7527 24.5384C54.7527 23.8352 55.0184 23.2906 55.5496 22.9046C56.0807 22.5185 56.8254 22.3256 57.7831 22.3256C58.6765 22.3256 59.3667 22.4978 59.8536 22.8418C60.3406 23.1861 60.584 23.6755 60.584 24.3096C60.584 25.0178 60.3183 25.5647 59.7872 25.9508C59.2561 26.3369 58.5074 26.5297 57.5415 26.5297ZM56.2797 25.5818C56.5493 25.8054 57.0101 25.9176 57.6621 25.9176C58.3139 25.9176 58.7746 25.803 59.0446 25.5745C59.314 25.3459 59.449 24.9587 59.449 24.4129C59.449 23.8723 59.314 23.4911 59.0446 23.2696C58.7749 23.0481 58.3142 22.9378 57.6621 22.9378C57.018 22.9378 56.5591 23.0511 56.2857 23.2769C56.0121 23.503 55.8753 23.8891 55.8753 24.4352C55.8753 24.9757 56.01 25.3581 56.2797 25.5818Z" fill="white"/>
<path d="M62.8898 25.5928C63.6543 25.8091 64.4231 25.9173 65.1958 25.9173C66.2584 25.9173 66.7895 25.7378 66.7895 25.3785C66.7895 25.2067 66.6548 25.0714 66.3851 24.973C66.1155 24.8749 65.7894 24.8011 65.4073 24.7514C65.0249 24.7024 64.6425 24.6457 64.2604 24.5817C63.8779 24.518 63.5519 24.3998 63.2825 24.2279C63.0129 24.0558 62.8779 23.8294 62.8779 23.549C62.8779 23.1803 63.0933 22.8842 63.5239 22.6602C63.9544 22.4365 64.5721 22.3244 65.3771 22.3244C66.1578 22.3244 66.9065 22.4131 67.6229 22.5901V23.2172C66.9226 23.0304 66.2264 22.9369 65.5344 22.9369C64.4962 22.9369 63.977 23.1212 63.977 23.4899C63.977 23.6767 64.1117 23.8205 64.3813 23.9214C64.651 24.0223 64.9789 24.0972 65.3653 24.1463C65.7516 24.1953 66.138 24.252 66.5244 24.316C66.9108 24.38 67.2386 24.4955 67.5083 24.6628C67.7777 24.8301 67.9127 25.0537 67.9127 25.3338C67.9127 25.693 67.6893 25.9819 67.2426 26.2007C66.7959 26.4194 66.1459 26.5288 65.2927 26.5288C64.3752 26.5288 63.5742 26.428 62.8901 26.2266V25.5928H62.8898Z" fill="white"/>
<path d="M75.6996 22.9893H72.8021V25.0915C72.8021 25.3715 72.9106 25.5796 73.1282 25.7146C73.3454 25.8499 73.7117 25.9176 74.2266 25.9176C74.7416 25.9176 75.2328 25.8536 75.6996 25.7256V26.36C75.1682 26.4731 74.6411 26.5297 74.1182 26.5297C73.3213 26.5297 72.7217 26.4082 72.3191 26.1647C71.9166 25.9212 71.7155 25.5931 71.7155 25.1802V22.9896H70.1822V22.5621L71.7155 22.3997L71.969 21.4925H72.8021V22.3997H75.6996V22.9893Z" fill="white"/>
<path d="M83.7888 24.3096C83.7888 24.4717 83.7846 24.5951 83.7766 24.6786H79.056C79.1045 25.1211 79.2873 25.438 79.6054 25.6299C79.9232 25.8216 80.3922 25.9176 81.012 25.9176C81.8006 25.9176 82.5572 25.7799 83.2818 25.5047V26.1388C82.5493 26.3993 81.7564 26.5297 80.9032 26.5297C79.9696 26.5297 79.2392 26.36 78.712 26.0209C78.1849 25.6814 77.9213 25.1921 77.9213 24.5531C77.9213 23.8699 78.1949 23.3278 78.7422 22.9268C79.2894 22.5261 80.054 22.3256 81.0361 22.3256C81.9295 22.3256 82.6114 22.4966 83.0825 22.8385C83.5536 23.1803 83.7888 23.6703 83.7888 24.3096ZM80.9516 22.9378C80.3398 22.9378 79.8852 23.0274 79.5871 23.2072C79.2891 23.3866 79.1164 23.6877 79.0679 24.1106H82.6538C82.6136 23.6828 82.4667 23.3805 82.2132 23.2032C81.9596 23.0262 81.5388 22.9378 80.9516 22.9378Z" fill="white"/>
<path d="M91.6724 22.9747C90.409 22.9747 89.3544 23.1813 88.5095 23.5941V25.8658H91.0209V26.456H85.7085V25.8658H87.4229V22.9893H86.0705V22.3994H88.2437L88.4488 23.2032C88.819 22.9082 89.2999 22.6748 89.8916 22.5027C90.4831 22.3308 91.0767 22.2446 91.6724 22.2446V22.9747Z" fill="white"/>
<path d="M97.2261 25.8658H99.0611V26.456H93.7487V25.8658H96.1395V22.9893H94.1113V22.3994H97.2261V25.8658ZM97.4196 20.6954V21.6839H95.9585V20.6954H97.4196Z" fill="white"/>
<path d="M104.941 22.3253C105.512 22.3253 105.957 22.4286 106.275 22.6352C106.593 22.8418 106.752 23.1465 106.752 23.5497V26.4557H105.678V23.6383C105.678 23.1417 105.316 22.8933 104.591 22.8933C104.237 22.8933 103.901 22.9625 103.583 23.0999C103.265 23.2376 102.88 23.4811 102.43 23.83V26.4557H101.356V22.3994H102.164L102.37 23.351C103.062 22.6672 103.919 22.3253 104.941 22.3253Z" fill="white"/>
<path d="M110.651 25.5044C112.132 25.5141 113.233 25.6037 113.954 25.7734C114.674 25.9432 115.034 26.2244 115.034 26.6178C115.034 27.0654 114.543 27.396 113.561 27.6099C112.579 27.8239 111.014 27.9308 108.865 27.9308V27.3113C110.128 27.3113 111.138 27.283 111.895 27.2266C112.651 27.1699 113.175 27.095 113.465 27.0017C113.754 26.9082 113.899 26.7906 113.899 26.6477C113.899 26.2546 112.672 26.0577 110.217 26.0577L109.589 25.6668L110.18 24.6192C109.416 24.4275 109.033 24.093 109.033 23.6161C109.033 23.2081 109.281 22.8909 109.776 22.6648C110.271 22.4387 110.961 22.3253 111.847 22.3253C112.346 22.3253 112.788 22.3674 113.174 22.4509L113.645 21.6394H114.901L113.766 22.6425C114.208 22.854 114.43 23.1392 114.43 23.4981C114.43 23.8964 114.182 24.2072 113.687 24.4312C113.192 24.6548 112.506 24.767 111.629 24.767C111.371 24.767 111.114 24.7548 110.856 24.7301L110.651 25.5044ZM112.933 23.0813C112.684 22.9856 112.286 22.9375 111.738 22.9375C111.191 22.9375 110.793 22.9853 110.543 23.0813C110.293 23.177 110.168 23.3309 110.168 23.5423C110.168 23.7538 110.293 23.9074 110.543 24.0037C110.792 24.0994 111.191 24.1475 111.738 24.1475C112.286 24.1475 112.684 24.0997 112.933 24.0037C113.183 23.9077 113.308 23.7541 113.308 23.5423C113.308 23.3312 113.183 23.1773 112.933 23.0813Z" fill="white"/>
<path d="M128.134 25.8658H129.969V26.456H124.656V25.8658H127.047V22.9893H125.019V22.3994H128.134V25.8658ZM128.327 20.6954V21.6839H126.866V20.6954H128.327Z" fill="white"/>
<path d="M135.849 22.3253C136.42 22.3253 136.865 22.4286 137.183 22.6352C137.501 22.8418 137.66 23.1465 137.66 23.5497V26.4557H136.585V23.6383C136.585 23.1417 136.223 22.8933 135.499 22.8933C135.145 22.8933 134.809 22.9625 134.49 23.0999C134.173 23.2376 133.788 23.4811 133.338 23.83V26.4557H132.263V22.3994H133.072L133.277 23.351C133.969 22.6672 134.826 22.3253 135.849 22.3253Z" fill="white"/>
<path d="M143.575 22.3253C144.147 22.3253 144.591 22.4286 144.909 22.6352C145.227 22.8418 145.386 23.1465 145.386 23.5497V26.4557H144.312V23.6383C144.312 23.1417 143.95 22.8933 143.225 22.8933C142.871 22.8933 142.535 22.9625 142.217 23.0999C141.899 23.2376 141.515 23.4811 141.064 23.83V26.4557H139.99V22.3994H140.799L141.004 23.351C141.696 22.6672 142.553 22.3253 143.575 22.3253Z" fill="white"/>
<path d="M150.264 26.5297C149.37 26.5297 148.683 26.3564 148.2 26.0096C147.717 25.6628 147.475 25.1726 147.475 24.5384C147.475 23.8352 147.741 23.2906 148.272 22.9046C148.803 22.5185 149.548 22.3256 150.505 22.3256C151.399 22.3256 152.089 22.4978 152.576 22.8418C153.063 23.1861 153.306 23.6755 153.306 24.3096C153.306 25.0178 153.041 25.5647 152.51 25.9508C151.978 26.3369 151.23 26.5297 150.264 26.5297ZM149.003 25.5818C149.272 25.8054 149.733 25.9176 150.385 25.9176C151.037 25.9176 151.497 25.803 151.767 25.5745C152.037 25.3459 152.172 24.9587 152.172 24.4129C152.172 23.8723 152.037 23.4911 151.767 23.2696C151.497 23.0481 151.037 22.9378 150.385 22.9378C149.741 22.9378 149.282 23.0511 149.008 23.2769C148.735 23.503 148.598 23.8891 148.598 24.4352C148.598 24.9757 148.733 25.3581 149.003 25.5818Z" fill="white"/>
<path d="M160.2 22.3994H161.263C160.804 23.6237 159.971 24.976 158.763 26.456H157.46C156.252 24.976 155.42 23.6237 154.961 22.3994H156.023C156.458 23.4662 157.154 24.6417 158.111 25.9249C159.093 24.607 159.79 23.432 160.2 22.3994Z" fill="white"/>
<path d="M168.676 26.4557H167.601L167.36 25.6516C166.909 26.2369 166.141 26.5295 165.054 26.5295C164.418 26.5295 163.923 26.4325 163.569 26.2381C163.215 26.0437 163.038 25.7722 163.038 25.423C163.038 24.9657 163.364 24.6201 164.016 24.3867C164.668 24.1533 165.734 24.0341 167.215 24.029V23.6822C167.215 23.1858 166.76 22.9375 165.851 22.9375C165.126 22.9375 164.386 23.0533 163.629 23.2843V22.6498C164.45 22.4335 165.235 22.3253 165.984 22.3253C166.716 22.3253 167.285 22.4396 167.692 22.6681C168.098 22.8967 168.302 23.213 168.302 23.6158V25.2091L168.676 26.4557ZM165.308 25.9176C165.871 25.9176 166.33 25.8115 166.684 25.6004C167.038 25.3892 167.215 25.1211 167.215 24.7962V24.4717C166.121 24.4769 165.338 24.5418 164.867 24.6673C164.396 24.7929 164.161 25.0056 164.161 25.3054C164.161 25.7134 164.543 25.9176 165.308 25.9176Z" fill="white"/>
<path d="M176.149 22.9893H173.251V25.0915C173.251 25.3715 173.36 25.5796 173.577 25.7146C173.795 25.8499 174.161 25.9176 174.676 25.9176C175.191 25.9176 175.682 25.8536 176.149 25.7256V26.36C175.618 26.4731 175.09 26.5297 174.568 26.5297C173.771 26.5297 173.171 26.4082 172.768 26.1647C172.366 25.9212 172.165 25.5931 172.165 25.1802V22.9896H170.632V22.5621L172.165 22.3997L172.419 21.4925H173.251V22.3997H176.149V22.9893Z" fill="white"/>
<path d="M182.222 25.8658H184.057V26.456H178.745V25.8658H181.135V22.9893H179.107V22.3994H182.222V25.8658ZM182.415 20.6954V21.6839H180.954V20.6954H182.415Z" fill="white"/>
<path d="M188.899 26.5297C188.005 26.5297 187.317 26.3564 186.834 26.0096C186.351 25.6628 186.11 25.1726 186.11 24.5384C186.11 23.8352 186.375 23.2906 186.907 22.9046C187.438 22.5185 188.182 22.3256 189.14 22.3256C190.033 22.3256 190.723 22.4978 191.211 22.8418C191.698 23.1861 191.941 23.6755 191.941 24.3096C191.941 25.0178 191.675 25.5647 191.144 25.9508C190.613 26.3369 189.864 26.5297 188.899 26.5297ZM187.637 25.5818C187.907 25.8054 188.367 25.9176 189.019 25.9176C189.671 25.9176 190.132 25.803 190.402 25.5745C190.671 25.3459 190.806 24.9587 190.806 24.4129C190.806 23.8723 190.671 23.4911 190.402 23.2696C190.132 23.0481 189.671 22.9378 189.019 22.9378C188.375 22.9378 187.916 23.0511 187.643 23.2769C187.369 23.503 187.232 23.8891 187.232 24.4352C187.232 24.9757 187.367 25.3581 187.637 25.5818Z" fill="white"/>
<path d="M197.664 22.3253C198.235 22.3253 198.68 22.4286 198.998 22.6352C199.316 22.8418 199.475 23.1465 199.475 23.5497V26.4557H198.4V23.6383C198.4 23.1417 198.038 22.8933 197.314 22.8933C196.96 22.8933 196.623 22.9625 196.305 23.0999C195.988 23.2376 195.603 23.4811 195.153 23.83V26.4557H194.078V22.3994H194.887L195.092 23.351C195.784 22.6672 196.641 22.3253 197.664 22.3253Z" fill="white"/>
</svg>
