<svg xmlns="http://www.w3.org/2000/svg" xmlns:xlink="http://www.w3.org/1999/xlink" viewBox="0 0 973.8 700.73"><defs><style>.cls-1{fill:#1e1e1e;}.cls-2{isolation:isolate;}.cls-3{clip-path:url(#clip-path);}.cls-10,.cls-13,.cls-16,.cls-19,.cls-22,.cls-23,.cls-24,.cls-27,.cls-30,.cls-33,.cls-36,.cls-39,.cls-4,.cls-42,.cls-45,.cls-48,.cls-51,.cls-54,.cls-57,.cls-60,.cls-63,.cls-66,.cls-69,.cls-7,.cls-72,.cls-75,.cls-78,.cls-81,.cls-84,.cls-87,.cls-90,.cls-93,.cls-96{mix-blend-mode:multiply;}.cls-4{fill:url(#linear-gradient);}.cls-5{fill:url(#linear-gradient-2);}.cls-6{fill:url(#linear-gradient-3);}.cls-7{fill:url(#linear-gradient-4);}.cls-8{fill:url(#linear-gradient-5);}.cls-9{fill:url(#linear-gradient-6);}.cls-10{fill:url(#linear-gradient-7);}.cls-11{fill:url(#linear-gradient-8);}.cls-12{fill:url(#linear-gradient-9);}.cls-13{fill:url(#linear-gradient-10);}.cls-14{fill:url(#linear-gradient-11);}.cls-15{fill:url(#linear-gradient-12);}.cls-16{fill:url(#linear-gradient-13);}.cls-17{fill:url(#linear-gradient-14);}.cls-18{fill:url(#linear-gradient-15);}.cls-19{fill:url(#linear-gradient-16);}.cls-20{fill:url(#linear-gradient-17);}.cls-21{fill:url(#linear-gradient-18);}.cls-22{fill:url(#linear-gradient-19);}.cls-23{fill:url(#linear-gradient-20);}.cls-24{fill:url(#linear-gradient-21);}.cls-25{fill:url(#linear-gradient-22);}.cls-26{fill:url(#linear-gradient-23);}.cls-27{fill:url(#linear-gradient-24);}.cls-28{fill:url(#linear-gradient-25);}.cls-29{fill:url(#linear-gradient-26);}.cls-30{fill:url(#linear-gradient-27);}.cls-31{fill:url(#linear-gradient-28);}.cls-32{fill:url(#linear-gradient-29);}.cls-33{fill:url(#linear-gradient-30);}.cls-34{fill:url(#linear-gradient-31);}.cls-35{fill:url(#linear-gradient-32);}.cls-36{fill:url(#linear-gradient-33);}.cls-37{fill:url(#linear-gradient-34);}.cls-38{fill:url(#linear-gradient-35);}.cls-39{fill:url(#linear-gradient-36);}.cls-40{fill:url(#linear-gradient-37);}.cls-41{fill:url(#linear-gradient-38);}.cls-42{fill:url(#linear-gradient-39);}.cls-43{fill:url(#linear-gradient-40);}.cls-44{fill:url(#linear-gradient-41);}.cls-45{fill:url(#linear-gradient-42);}.cls-46{fill:url(#linear-gradient-43);}.cls-47{fill:url(#linear-gradient-44);}.cls-48{fill:url(#linear-gradient-45);}.cls-49{fill:url(#linear-gradient-46);}.cls-50{fill:url(#linear-gradient-47);}.cls-51{fill:url(#linear-gradient-48);}.cls-52{fill:url(#linear-gradient-49);}.cls-53{fill:url(#linear-gradient-50);}.cls-54{fill:url(#linear-gradient-51);}.cls-55{fill:url(#linear-gradient-52);}.cls-56{fill:url(#linear-gradient-53);}.cls-57{fill:url(#linear-gradient-54);}.cls-58{fill:url(#linear-gradient-55);}.cls-59{fill:url(#linear-gradient-56);}.cls-60{fill:url(#linear-gradient-57);}.cls-61{fill:url(#linear-gradient-58);}.cls-62{fill:url(#linear-gradient-59);}.cls-63{fill:url(#linear-gradient-60);}.cls-64{fill:url(#linear-gradient-61);}.cls-65{fill:url(#linear-gradient-62);}.cls-66{fill:url(#linear-gradient-63);}.cls-67{fill:url(#linear-gradient-64);}.cls-68{fill:url(#linear-gradient-65);}.cls-69{fill:url(#linear-gradient-66);}.cls-70{fill:url(#linear-gradient-67);}.cls-71{fill:url(#linear-gradient-68);}.cls-72{fill:url(#linear-gradient-69);}.cls-73{fill:url(#linear-gradient-70);}.cls-74{fill:url(#linear-gradient-71);}.cls-75{fill:url(#linear-gradient-72);}.cls-76{fill:url(#linear-gradient-73);}.cls-77{fill:url(#linear-gradient-74);}.cls-78{fill:url(#linear-gradient-75);}.cls-79{fill:url(#linear-gradient-76);}.cls-80{fill:url(#linear-gradient-77);}.cls-81{fill:url(#linear-gradient-78);}.cls-82{fill:url(#linear-gradient-79);}.cls-83{fill:url(#linear-gradient-80);}.cls-84{fill:url(#linear-gradient-81);}.cls-85{fill:url(#linear-gradient-82);}.cls-86{fill:url(#linear-gradient-83);}.cls-87{fill:url(#linear-gradient-84);}.cls-88{fill:url(#linear-gradient-85);}.cls-89{fill:url(#linear-gradient-86);}.cls-90{fill:url(#linear-gradient-87);}.cls-91{fill:url(#linear-gradient-88);}.cls-92{fill:url(#linear-gradient-89);}.cls-93{fill:url(#linear-gradient-90);}.cls-94{fill:url(#linear-gradient-91);}.cls-95{fill:url(#linear-gradient-92);}.cls-96{fill:url(#linear-gradient-93);}.cls-97{fill:url(#linear-gradient-94);}.cls-98{fill:url(#linear-gradient-95);}</style><clipPath id="clip-path" transform="translate(93.62 89.86)"><rect class="cls-1" width="800" height="500"/></clipPath><linearGradient id="linear-gradient" x1="-9460.53" y1="1777.77" x2="-9363.55" y2="1778.51" gradientTransform="matrix(0.45, -0.89, 0.89, 0.45, 2742.99, -9035.68)" gradientUnits="userSpaceOnUse"><stop offset="0" stop-color="#0d0d0d"/><stop offset="0.34" stop-color="#080609"/><stop offset="1" stop-color="#030104"/></linearGradient><linearGradient id="linear-gradient-2" x1="-11663.18" y1="-6027.24" x2="-11566.2" y2="-6026.5" gradientTransform="matrix(-0.53, -0.85, 0.85, -0.53, -933.14, -12864.15)" gradientUnits="userSpaceOnUse"><stop offset="0" stop-color="#1e1e1e"/><stop offset="0.66" stop-color="#1e1e1e"/><stop offset="1" stop-color="#0d0d0d"/></linearGradient><linearGradient id="linear-gradient-3" x1="-11649.43" y1="-6062.14" x2="-11579.95" y2="-5991.6" gradientTransform="matrix(-0.53, -0.85, 0.85, -0.53, -933.14, -12864.15)" gradientUnits="userSpaceOnUse"><stop offset="0.31" stop-color="#040205"/><stop offset="0.42" stop-color="#0d0204"/><stop offset="0.59" stop-color="#240102"/><stop offset="0.7" stop-color="#380000"/><stop offset="1" stop-color="#d90000"/></linearGradient><linearGradient id="linear-gradient-4" x1="4700.2" y1="-2524.98" x2="4810.31" y2="-2524.14" gradientTransform="translate(-4364.39 -2894.64) rotate(60.46)" xlink:href="#linear-gradient"/><linearGradient id="linear-gradient-5" x1="-10246.47" y1="576.89" x2="-10136.37" y2="577.73" gradientTransform="matrix(0.28, -0.96, 0.96, 0.28, 2513.58, -9927.98)" xlink:href="#linear-gradient-2"/><linearGradient id="linear-gradient-6" x1="-10230.75" y1="537.38" x2="-10152.09" y2="617.24" gradientTransform="matrix(0.28, -0.96, 0.96, 0.28, 2513.58, -9927.98)" xlink:href="#linear-gradient-3"/><linearGradient id="linear-gradient-7" x1="-748.17" y1="3768.39" x2="-670.51" y2="3768.98" gradientTransform="translate(969.24 -3713.44) rotate(0.53)" xlink:href="#linear-gradient"/><linearGradient id="linear-gradient-8" x1="4851.65" y1="-3646.26" x2="4929.33" y2="-3645.67" gradientTransform="translate(-4948.8 -3185.81) rotate(68.8)" xlink:href="#linear-gradient-2"/><linearGradient id="linear-gradient-9" x1="4862.52" y1="-3674.35" x2="4918.44" y2="-3617.56" gradientTransform="translate(-4948.8 -3185.81) rotate(68.8)" xlink:href="#linear-gradient-3"/><linearGradient id="linear-gradient-10" x1="-8973.27" y1="2166.95" x2="-8811.01" y2="2168.19" gradientTransform="matrix(0.5, -0.87, 0.87, 0.5, 2837.31, -8692.58)" xlink:href="#linear-gradient"/><linearGradient id="linear-gradient-11" x1="-4792.15" y1="4173.1" x2="-4629.88" y2="4174.33" gradientTransform="matrix(0.89, -0.46, 0.46, 0.89, 2524.49, -5765.47)" xlink:href="#linear-gradient-2"/><linearGradient id="linear-gradient-12" x1="-4768.63" y1="4115.22" x2="-4653.4" y2="4232.21" gradientTransform="matrix(0.89, -0.46, 0.46, 0.89, 2524.49, -5765.47)" xlink:href="#linear-gradient-3"/><linearGradient id="linear-gradient-13" x1="-10745.88" y1="-8452.47" x2="-10686.26" y2="-8452.02" gradientTransform="matrix(-0.78, -0.63, 0.63, -0.78, -2956.27, -12971.16)" xlink:href="#linear-gradient"/><linearGradient id="linear-gradient-14" x1="2892.21" y1="889.34" x2="2951.84" y2="889.79" gradientTransform="translate(-1844.36 -2066.02) rotate(35.43)" xlink:href="#linear-gradient-2"/><linearGradient id="linear-gradient-15" x1="2900.39" y1="867.62" x2="2943.64" y2="911.53" gradientTransform="translate(-1844.36 -2066.02) rotate(35.43)" xlink:href="#linear-gradient-3"/><linearGradient id="linear-gradient-16" x1="-9931.1" y1="1296.73" x2="-9843.23" y2="1297.4" gradientTransform="translate(2625.04 -9432.75) rotate(-67.2)" xlink:href="#linear-gradient"/><linearGradient id="linear-gradient-17" x1="-2904.05" y1="4092.91" x2="-2816.2" y2="4093.58" gradientTransform="translate(1865.54 -4432.49) rotate(-12.79)" xlink:href="#linear-gradient-2"/><linearGradient id="linear-gradient-18" x1="-2891.66" y1="4061.23" x2="-2828.59" y2="4125.26" gradientTransform="translate(1865.54 -4432.49) rotate(-12.79)" xlink:href="#linear-gradient-3"/><linearGradient id="linear-gradient-19" x1="4266.37" y1="-2182.52" x2="4364.76" y2="-2181.78" gradientTransform="translate(-4140.53 -2238.85) rotate(58.44)" xlink:href="#linear-gradient"/><linearGradient id="linear-gradient-20" x1="-11991.96" y1="-5063.7" x2="-11954.06" y2="-5063.41" gradientTransform="translate(-476.76 -12743.99) rotate(-114.7)" xlink:href="#linear-gradient"/><linearGradient id="linear-gradient-21" x1="4782.81" y1="-4158.64" x2="4847.15" y2="-4158.15" gradientTransform="matrix(0.3, 0.95, -0.95, 0.3, -5261.87, -3213.42)" xlink:href="#linear-gradient"/><linearGradient id="linear-gradient-22" x1="-5514.46" y1="3959.11" x2="-5450.11" y2="3959.6" gradientTransform="translate(2675.87 -6159.25) rotate(-32.3)" xlink:href="#linear-gradient-2"/><linearGradient id="linear-gradient-23" x1="-5505.55" y1="3935.73" x2="-5459" y2="3982.99" gradientTransform="translate(2675.87 -6159.25) rotate(-32.3)" xlink:href="#linear-gradient-3"/><linearGradient id="linear-gradient-24" x1="1845.28" y1="2380.27" x2="1992.45" y2="2381.38" gradientTransform="matrix(0.05, 1, -1, 0.05, 2563.77, -2061.06)" xlink:href="#linear-gradient"/><linearGradient id="linear-gradient-25" x1="2020.59" y1="2218.98" x2="2167.75" y2="2220.1" gradientTransform="matrix(0.92, 0.38, -0.38, 0.92, -814.44, -2853.24)" xlink:href="#linear-gradient-2"/><linearGradient id="linear-gradient-26" x1="2041.82" y1="2166.38" x2="2146.52" y2="2272.69" gradientTransform="matrix(0.92, 0.38, -0.38, 0.92, -814.44, -2853.24)" xlink:href="#linear-gradient-3"/><linearGradient id="linear-gradient-27" x1="-8403.69" y1="-10801.85" x2="-8323.26" y2="-10801.24" gradientTransform="translate(-4878.77 -12441.3) rotate(-163.57)" xlink:href="#linear-gradient"/><linearGradient id="linear-gradient-28" x1="-986.36" y1="-11818.29" x2="-905.94" y2="-11817.68" gradientTransform="translate(-7854.41 -8515.58) rotate(142.55)" xlink:href="#linear-gradient-2"/><linearGradient id="linear-gradient-29" x1="-975.05" y1="-11847.33" x2="-917.23" y2="-11788.62" gradientTransform="translate(-7854.41 -8515.58) rotate(142.55)" xlink:href="#linear-gradient-3"/><linearGradient id="linear-gradient-30" x1="810.73" y1="2832.35" x2="1032.16" y2="2834.03" gradientTransform="translate(-105.1 -2746.34) rotate(15.13)" xlink:href="#linear-gradient"/><linearGradient id="linear-gradient-31" x1="-8555.93" y1="2684.83" x2="-8334.51" y2="2686.52" gradientTransform="matrix(0.59, -0.8, 0.8, 0.59, 2881.37, -8141.64)" xlink:href="#linear-gradient-2"/><linearGradient id="linear-gradient-32" x1="-8523.61" y1="2606.08" x2="-8366.83" y2="2765.27" gradientTransform="matrix(0.59, -0.8, 0.8, 0.59, 2881.37, -8141.64)" xlink:href="#linear-gradient-3"/><linearGradient id="linear-gradient-33" x1="-11849.85" y1="-4492.72" x2="-11790.84" y2="-4492.27" gradientTransform="translate(-41.54 -12420.66) rotate(-111.68)" xlink:href="#linear-gradient"/><linearGradient id="linear-gradient-34" x1="-11786.64" y1="-2814.88" x2="-11727.64" y2="-2814.43" gradientTransform="matrix(-0.17, -0.98, 0.98, -0.17, 867.4, -11839.41)" xlink:href="#linear-gradient-2"/><linearGradient id="linear-gradient-35" x1="-11778.55" y1="-2836.39" x2="-11735.73" y2="-2792.92" gradientTransform="matrix(-0.17, -0.98, 0.98, -0.17, 867.4, -11839.41)" xlink:href="#linear-gradient-3"/><linearGradient id="linear-gradient-36" x1="-10483.25" y1="-8636.29" x2="-10372.93" y2="-8635.45" gradientTransform="matrix(-0.78, -0.63, 0.63, -0.78, -2568.64, -13211.36)" xlink:href="#linear-gradient"/><linearGradient id="linear-gradient-37" x1="-11222.8" y1="-1069.06" x2="-11112.49" y2="-1068.22" gradientTransform="translate(1864.46 -11011.27) rotate(-86.45)" xlink:href="#linear-gradient-2"/><linearGradient id="linear-gradient-38" x1="-11207.05" y1="-1108.65" x2="-11128.24" y2="-1028.63" gradientTransform="translate(1864.46 -11011.27) rotate(-86.45)" xlink:href="#linear-gradient-3"/><linearGradient id="linear-gradient-39" x1="-2957.17" y1="-12408.41" x2="-2915.76" y2="-12408.09" gradientTransform="translate(-7431.93 -10200.31) rotate(157.39)" xlink:href="#linear-gradient"/><linearGradient id="linear-gradient-40" x1="-8889.27" y1="2213.17" x2="-8847.86" y2="2213.48" gradientTransform="matrix(0.53, -0.85, 0.85, 0.53, 2851.27, -8571.24)" xlink:href="#linear-gradient-2"/><linearGradient id="linear-gradient-41" x1="-8883.8" y1="2197.86" x2="-8853.34" y2="2228.78" gradientTransform="matrix(0.53, -0.85, 0.85, 0.53, 2851.27, -8571.24)" xlink:href="#linear-gradient-3"/><linearGradient id="linear-gradient-42" x1="-11392.16" y1="-2142.05" x2="-11311.36" y2="-2141.43" gradientTransform="matrix(-0.09, -1, 1, -0.09, 1436.99, -11462.72)" xlink:href="#linear-gradient"/><linearGradient id="linear-gradient-43" x1="4800.74" y1="-2429.23" x2="4881.56" y2="-2428.62" gradientTransform="translate(-4148.32 -3003.08) rotate(60.86)" xlink:href="#linear-gradient-2"/><linearGradient id="linear-gradient-44" x1="4812.1" y1="-2458.44" x2="4870.22" y2="-2399.43" gradientTransform="translate(-4148.32 -3003.08) rotate(60.86)" xlink:href="#linear-gradient-3"/><linearGradient id="linear-gradient-45" x1="2331.25" y1="1869.02" x2="2411.9" y2="1869.63" gradientTransform="translate(-1071.16 -2572.76) rotate(26.59)" xlink:href="#linear-gradient"/><linearGradient id="linear-gradient-46" x1="4397.41" y1="-1569.03" x2="4478.05" y2="-1568.42" gradientTransform="matrix(0.58, 0.82, -0.82, 0.58, -3640.26, -2545.71)" xlink:href="#linear-gradient-2"/><linearGradient id="linear-gradient-47" x1="4408.74" y1="-1598.18" x2="4466.74" y2="-1539.29" gradientTransform="matrix(0.58, 0.82, -0.82, 0.58, -3640.26, -2545.71)" xlink:href="#linear-gradient-3"/><linearGradient id="linear-gradient-48" x1="-9453.26" y1="2352.09" x2="-9356.28" y2="2352.83" xlink:href="#linear-gradient"/><linearGradient id="linear-gradient-49" x1="-12149.82" y1="-5722.02" x2="-12052.83" y2="-5721.29" xlink:href="#linear-gradient-2"/><linearGradient id="linear-gradient-50" x1="-12136.06" y1="-5756.92" x2="-12066.58" y2="-5686.39" gradientTransform="matrix(-0.53, -0.85, 0.85, -0.53, -933.14, -12864.15)" gradientUnits="userSpaceOnUse"><stop offset="0.31" stop-color="#1e1e1e"/><stop offset="0.47" stop-color="#251515"/><stop offset="0.7" stop-color="#380000"/><stop offset="1" stop-color="#d90000"/></linearGradient><linearGradient id="linear-gradient-51" x1="5173.7" y1="-2850.14" x2="5283.81" y2="-2849.3" gradientTransform="translate(-4364.39 -2894.64) rotate(60.46)" xlink:href="#linear-gradient"/><linearGradient id="linear-gradient-52" x1="-10340.78" y1="1143.49" x2="-10230.67" y2="1144.33" gradientTransform="matrix(0.28, -0.96, 0.96, 0.28, 2513.58, -9927.98)" xlink:href="#linear-gradient-2"/><linearGradient id="linear-gradient-53" x1="-10325.05" y1="1103.98" x2="-10246.39" y2="1183.84" gradientTransform="matrix(0.28, -0.96, 0.96, 0.28, 2513.58, -9927.98)" xlink:href="#linear-gradient-50"/><linearGradient id="linear-gradient-54" x1="-229.53" y1="4015.22" x2="-151.87" y2="4015.81" gradientTransform="translate(969.24 -3713.44) rotate(0.53)" xlink:href="#linear-gradient"/><linearGradient id="linear-gradient-55" x1="5272.97" y1="-4036.71" x2="5350.64" y2="-4036.12" gradientTransform="translate(-4948.8 -3185.81) rotate(68.8)" xlink:href="#linear-gradient-2"/><linearGradient id="linear-gradient-56" x1="5283.83" y1="-4064.8" x2="5339.76" y2="-4008.02" gradientTransform="translate(-4948.8 -3185.81) rotate(68.8)" xlink:href="#linear-gradient-50"/><linearGradient id="linear-gradient-57" x1="-8933.64" y1="2739.99" x2="-8771.39" y2="2741.23" gradientTransform="matrix(0.5, -0.87, 0.87, 0.5, 2837.31, -8692.58)" xlink:href="#linear-gradient"/><linearGradient id="linear-gradient-58" x1="-4449.65" y1="4634.26" x2="-4287.38" y2="4635.5" gradientTransform="matrix(0.89, -0.46, 0.46, 0.89, 2524.49, -5765.47)" xlink:href="#linear-gradient-2"/><linearGradient id="linear-gradient-59" x1="-4426.13" y1="4576.38" x2="-4310.9" y2="4693.37" gradientTransform="matrix(0.89, -0.46, 0.46, 0.89, 2524.49, -5765.47)" xlink:href="#linear-gradient-50"/><linearGradient id="linear-gradient-60" x1="-9962.96" y1="1870.24" x2="-9875.1" y2="1870.9" gradientTransform="translate(2625.04 -9432.75) rotate(-67.2)" xlink:href="#linear-gradient"/><linearGradient id="linear-gradient-61" x1="-2456.17" y1="4452.56" x2="-2368.31" y2="4453.22" gradientTransform="translate(1865.54 -4432.49) rotate(-12.79)" xlink:href="#linear-gradient-2"/><linearGradient id="linear-gradient-62" x1="-2443.77" y1="4420.87" x2="-2380.7" y2="4484.91" gradientTransform="translate(1865.54 -4432.49) rotate(-12.79)" xlink:href="#linear-gradient-50"/><linearGradient id="linear-gradient-63" x1="-12436.32" y1="-4699.67" x2="-12398.42" y2="-4699.39" gradientTransform="translate(-476.76 -12743.99) rotate(-114.7)" xlink:href="#linear-gradient"/><linearGradient id="linear-gradient-64" x1="-2410.64" y1="4434.14" x2="-2372.75" y2="4434.43" gradientTransform="translate(1849.71 -4332.81) rotate(-12.08)" xlink:href="#linear-gradient-2"/><linearGradient id="linear-gradient-65" x1="-2405.69" y1="4420.07" x2="-2377.7" y2="4448.5" gradientTransform="translate(1849.71 -4332.81) rotate(-12.08)" xlink:href="#linear-gradient-50"/><linearGradient id="linear-gradient-66" x1="5179.33" y1="-4574.2" x2="5243.68" y2="-4573.71" gradientTransform="matrix(0.3, 0.95, -0.95, 0.3, -5261.87, -3213.42)" xlink:href="#linear-gradient"/><linearGradient id="linear-gradient-67" x1="-5212.41" y1="4447.68" x2="-5148.06" y2="4448.17" gradientTransform="translate(2675.87 -6159.25) rotate(-32.3)" xlink:href="#linear-gradient-2"/><linearGradient id="linear-gradient-68" x1="-5203.5" y1="4424.3" x2="-5156.95" y2="4471.57" gradientTransform="translate(2675.87 -6159.25) rotate(-32.3)" xlink:href="#linear-gradient-50"/><linearGradient id="linear-gradient-69" x1="2417.2" y1="2433.88" x2="2564.36" y2="2435" gradientTransform="matrix(0.31, 0.95, -0.95, 0.31, 2336.54, -2893.47)" xlink:href="#linear-gradient"/><linearGradient id="linear-gradient-70" x1="2593.86" y1="2255.24" x2="2741.03" y2="2256.36" gradientTransform="matrix(0.92, 0.38, -0.38, 0.92, -814.44, -2853.24)" xlink:href="#linear-gradient-2"/><linearGradient id="linear-gradient-71" x1="2615.09" y1="2202.64" x2="2719.8" y2="2308.95" gradientTransform="matrix(0.92, 0.38, -0.38, 0.92, -814.44, -2853.24)" xlink:href="#linear-gradient-50"/><linearGradient id="linear-gradient-72" x1="-8970.12" y1="-10897.16" x2="-8889.69" y2="-10896.55" gradientTransform="translate(-4878.77 -12441.3) rotate(-163.57)" xlink:href="#linear-gradient"/><linearGradient id="linear-gradient-73" x1="-1243.34" y1="-12332.02" x2="-1162.92" y2="-12331.41" gradientTransform="translate(-7854.41 -8515.58) rotate(142.55)" xlink:href="#linear-gradient-2"/><linearGradient id="linear-gradient-74" x1="-1232.04" y1="-12361.06" x2="-1174.21" y2="-12302.35" gradientTransform="translate(-7854.41 -8515.58) rotate(142.55)" xlink:href="#linear-gradient-50"/><linearGradient id="linear-gradient-75" x1="1374.89" y1="2940.46" x2="1596.32" y2="2942.14" gradientTransform="translate(-105.1 -2746.34) rotate(15.13)" xlink:href="#linear-gradient"/><linearGradient id="linear-gradient-76" x1="-8451.67" y1="3249.72" x2="-8230.25" y2="3251.4" gradientTransform="matrix(0.59, -0.8, 0.8, 0.59, 2881.37, -8141.64)" xlink:href="#linear-gradient-2"/><linearGradient id="linear-gradient-77" x1="-8419.35" y1="3170.96" x2="-8262.56" y2="3330.15" gradientTransform="matrix(0.59, -0.8, 0.8, 0.59, 2881.37, -8141.64)" xlink:href="#linear-gradient-50"/><linearGradient id="linear-gradient-78" x1="-12274.39" y1="-4105.83" x2="-12215.38" y2="-4105.38" gradientTransform="translate(-41.54 -12420.66) rotate(-111.68)" xlink:href="#linear-gradient"/><linearGradient id="linear-gradient-79" x1="-12124.4" y1="-2350.27" x2="-12065.4" y2="-2349.83" gradientTransform="matrix(-0.17, -0.98, 0.98, -0.17, 867.4, -11839.41)" xlink:href="#linear-gradient-2"/><linearGradient id="linear-gradient-80" x1="-12116.3" y1="-2371.79" x2="-12073.49" y2="-2328.32" gradientTransform="matrix(-0.17, -0.98, 0.98, -0.17, 867.4, -11839.41)" xlink:href="#linear-gradient-50"/><linearGradient id="linear-gradient-81" x1="-11043.03" y1="-8507.45" x2="-10932.71" y2="-8506.61" gradientTransform="matrix(-0.78, -0.63, 0.63, -0.78, -2568.64, -13211.36)" xlink:href="#linear-gradient"/><linearGradient id="linear-gradient-82" x1="-11441.9" y1="-538.09" x2="-11331.59" y2="-537.26" gradientTransform="translate(1864.46 -11011.27) rotate(-86.45)" xlink:href="#linear-gradient-2"/><linearGradient id="linear-gradient-83" x1="-11426.15" y1="-577.69" x2="-11347.34" y2="-497.66" gradientTransform="translate(1864.46 -11011.27) rotate(-86.45)" xlink:href="#linear-gradient-50"/><linearGradient id="linear-gradient-84" x1="379.29" y1="-11710.83" x2="428.2" y2="-11710.46" gradientTransform="matrix(-0.63, 0.78, -0.78, -0.63, -8384.54, -7176.74)" xlink:href="#linear-gradient"/><linearGradient id="linear-gradient-85" x1="2333.23" y1="1909.79" x2="2382.14" y2="1910.17" gradientTransform="translate(-924.66 -2187.85) rotate(23.97)" xlink:href="#linear-gradient-2"/><linearGradient id="linear-gradient-86" x1="2339.81" y1="1891.84" x2="2375.55" y2="1928.12" gradientTransform="translate(-924.66 -2187.85) rotate(23.97)" xlink:href="#linear-gradient-50"/><linearGradient id="linear-gradient-87" x1="-3337.11" y1="-12839.23" x2="-3295.7" y2="-12838.91" gradientTransform="translate(-7431.93 -10200.31) rotate(157.39)" xlink:href="#linear-gradient"/><linearGradient id="linear-gradient-88" x1="-8830.16" y1="2784.53" x2="-8788.75" y2="2784.85" gradientTransform="matrix(0.53, -0.85, 0.85, 0.53, 2851.27, -8571.24)" xlink:href="#linear-gradient-2"/><linearGradient id="linear-gradient-89" x1="-8824.69" y1="2769.23" x2="-8794.23" y2="2800.15" gradientTransform="matrix(0.53, -0.85, 0.85, 0.53, 2851.27, -8571.24)" xlink:href="#linear-gradient-50"/><linearGradient id="linear-gradient-90" x1="2905.59" y1="1862.9" x2="2986.24" y2="1863.51" gradientTransform="translate(-1071.16 -2572.76) rotate(26.59)" xlink:href="#linear-gradient"/><linearGradient id="linear-gradient-91" x1="4901.3" y1="-1844.73" x2="4981.94" y2="-1844.12" gradientTransform="matrix(0.58, 0.82, -0.82, 0.58, -3640.26, -2545.71)" xlink:href="#linear-gradient-2"/><linearGradient id="linear-gradient-92" x1="4912.63" y1="-1873.88" x2="4970.63" y2="-1814.99" gradientTransform="matrix(0.58, 0.82, -0.82, 0.58, -3640.26, -2545.71)" xlink:href="#linear-gradient-50"/><linearGradient id="linear-gradient-93" x1="5303.61" y1="-3082.77" x2="5406.1" y2="-3082" gradientTransform="translate(-4478.83 -3096.39) rotate(62.03)" xlink:href="#linear-gradient"/><linearGradient id="linear-gradient-94" x1="5288.62" y1="-3068.37" x2="5391.11" y2="-3067.59" gradientTransform="translate(-4473.21 -3072.46) rotate(61.93)" xlink:href="#linear-gradient-2"/><linearGradient id="linear-gradient-95" x1="5303.19" y1="-3105.21" x2="5376.53" y2="-3030.74" gradientTransform="translate(-4473.21 -3072.46) rotate(61.93)" gradientUnits="userSpaceOnUse"><stop offset="0.31" stop-color="#1e1e1e"/><stop offset="0.47" stop-color="#251515"/><stop offset="0.7" stop-color="#380000"/><stop offset="1" stop-color="#ff1a08"/></linearGradient></defs><g class="cls-2"><g id="Layer_44" data-name="Layer 44"><rect class="cls-1" x="93.62" y="89.86" width="800" height="500"/><g class="cls-3"><path class="cls-4" d="M136.09,137.85a48.48,48.48,0,1,1-68.56,0A48.47,48.47,0,0,1,136.09,137.85Z" transform="translate(93.62 89.86)"/><path class="cls-5" d="M128,146a48.49,48.49,0,1,1-68.56,0A48.5,48.5,0,0,1,128,146Z" transform="translate(93.62 89.86)"/><path class="cls-6" d="M93.7,229.73a49.48,49.48,0,1,1,35-14.49A49.17,49.17,0,0,1,93.7,229.73Zm0-97a47.49,47.49,0,1,0,33.57,13.91A47.17,47.17,0,0,0,93.7,132.76Z" transform="translate(93.62 89.86)"/><path class="cls-7" d="M215.72-41.35a55.05,55.05,0,0,1,0,77.84,55,55,0,0,1-77.85,0,55.05,55.05,0,0,1,0-77.84A55,55,0,0,1,215.72-41.35Z" transform="translate(93.62 89.86)"/><path class="cls-8" d="M206.51-32.14a55,55,0,1,1-77.85,0A55.05,55.05,0,0,1,206.51-32.14Z" transform="translate(93.62 89.86)"/><path class="cls-9" d="M167.58,62.83A55.67,55.67,0,0,1,128,46.41a56.11,56.11,0,0,1,0-79.26,56.06,56.06,0,0,1,79.26,0,56.1,56.1,0,0,1,0,79.26A55.66,55.66,0,0,1,167.58,62.83Zm0-110.09a53.69,53.69,0,0,0-38.22,15.83,54.11,54.11,0,0,0,0,76.43,54,54,0,0,0,76.43,0,54.11,54.11,0,0,0,0-76.43A53.68,53.68,0,0,0,167.59-47.26Z" transform="translate(93.62 89.86)"/><path class="cls-10" d="M252.68,21.26a38.83,38.83,0,1,1-54.91,0A38.82,38.82,0,0,1,252.68,21.26Z" transform="translate(93.62 89.86)"/><path class="cls-11" d="M246.19,27.76a38.83,38.83,0,1,1-54.92,0A38.83,38.83,0,0,1,246.19,27.76Z" transform="translate(93.62 89.86)"/><path class="cls-12" d="M218.73,95a39.83,39.83,0,1,1,28.16-11.66A39.56,39.56,0,0,1,218.73,95Zm0-77.65a37.82,37.82,0,1,0,26.75,11.07A37.61,37.61,0,0,0,218.73,17.39Z" transform="translate(93.62 89.86)"/><path class="cls-13" d="M335.91,37.62a81.11,81.11,0,1,1-114.71,0A81.1,81.1,0,0,1,335.91,37.62Z" transform="translate(93.62 89.86)"/><path class="cls-14" d="M322.34,51.19a81.11,81.11,0,1,1-114.71,0A81.1,81.1,0,0,1,322.34,51.19Z" transform="translate(93.62 89.86)"/><path class="cls-15" d="M265,190.65a82.11,82.11,0,0,1,0-164.22A82.11,82.11,0,0,1,323,166.6,81.57,81.57,0,0,1,265,190.65Zm0-162.22a80.12,80.12,0,0,0-56.64,136.76A80.11,80.11,0,1,0,265,28.43Z" transform="translate(93.62 89.86)"/><path class="cls-16" d="M46.89,326.63a29.81,29.81,0,1,1-42.16,0A29.82,29.82,0,0,1,46.89,326.63Z" transform="translate(93.62 89.86)"/><path class="cls-17" d="M41.91,331.62a29.81,29.81,0,1,1-42.16,0A29.81,29.81,0,0,1,41.91,331.62Z" transform="translate(93.62 89.86)"/><path class="cls-18" d="M20.82,383.51a30.82,30.82,0,1,1,21.79-9A30.61,30.61,0,0,1,20.82,383.51Zm0-59.62A28.81,28.81,0,1,0,41.2,373.07a28.81,28.81,0,0,0-20.37-49.18Z" transform="translate(93.62 89.86)"/><path class="cls-19" d="M20.59,153.78a43.93,43.93,0,0,1,0,62.12,43.93,43.93,0,0,1-62.12,0,43.92,43.92,0,0,1,0-62.12A43.91,43.91,0,0,1,20.59,153.78Z" transform="translate(93.62 89.86)"/><path class="cls-20" d="M13.24,161.13a43.93,43.93,0,0,1,0,62.12,43.93,43.93,0,0,1-62.12,0,43.91,43.91,0,0,1,0-62.12A43.92,43.92,0,0,1,13.24,161.13Z" transform="translate(93.62 89.86)"/><path class="cls-21" d="M-17.82,237.11A44.63,44.63,0,0,1-49.59,224a44.63,44.63,0,0,1-13.16-31.76,44.67,44.67,0,0,1,13.16-31.77,44.67,44.67,0,0,1,31.77-13.16,44.63,44.63,0,0,1,31.76,13.16A44.63,44.63,0,0,1,27.1,192.19,44.59,44.59,0,0,1,13.94,224,44.59,44.59,0,0,1-17.82,237.11Zm0-87.85a42.61,42.61,0,0,0-30.35,12.58,42.61,42.61,0,0,0-12.58,30.35,42.65,42.65,0,0,0,12.58,30.35,42.61,42.61,0,0,0,30.35,12.57,42.64,42.64,0,0,0,30.35-12.57A42.64,42.64,0,0,0,25.1,192.19a42.61,42.61,0,0,0-12.57-30.35A42.63,42.63,0,0,0-17.82,149.26Z" transform="translate(93.62 89.86)"/><path class="cls-22" d="M12.42,261.52a49.18,49.18,0,0,1,0,69.56,49.17,49.17,0,0,1-69.55,0,49.18,49.18,0,0,1,0-69.56A49.17,49.17,0,0,1,12.42,261.52Z" transform="translate(93.62 89.86)"/><path class="cls-23" d="M-61.28,235.64a19,19,0,0,1,0,26.8,19,19,0,0,1-26.79,0,19,19,0,0,1,0-26.8A19,19,0,0,1-61.28,235.64Z" transform="translate(93.62 89.86)"/><path class="cls-24" d="M185.3,88.64a32.17,32.17,0,1,1-45.49,0A32.15,32.15,0,0,1,185.3,88.64Z" transform="translate(93.62 89.86)"/><path class="cls-25" d="M179.92,94a32.17,32.17,0,1,1-45.49,0A32.17,32.17,0,0,1,179.92,94Z" transform="translate(93.62 89.86)"/><path class="cls-26" d="M157.17,149.94a33.17,33.17,0,1,1,23.46-9.72A32.92,32.92,0,0,1,157.17,149.94Zm0-64.34a31.17,31.17,0,1,0,22,9.13A30.93,30.93,0,0,0,157.17,85.6Z" transform="translate(93.62 89.86)"/><circle class="cls-27" cx="290.24" cy="-16.3" r="73.56" transform="translate(282.02 345.84) rotate(-66.28)"/><path class="cls-28" d="M330-56a73.56,73.56,0,0,1,0,104,73.56,73.56,0,0,1-104,0,73.57,73.57,0,0,1,0-104A73.56,73.56,0,0,1,330-56Z" transform="translate(93.62 89.86)"/><path class="cls-29" d="M277.93,70.57a74,74,0,0,1-52.72-21.84A74.07,74.07,0,0,1,203.37-4a74.11,74.11,0,0,1,21.84-52.73,74.09,74.09,0,0,1,52.73-21.84,74.09,74.09,0,0,1,52.72,21.84A74.11,74.11,0,0,1,352.5-4a74.09,74.09,0,0,1-21.84,52.72A74,74,0,0,1,277.93,70.57Zm0-147.13A72.05,72.05,0,0,0,226.63-55.3,72.07,72.07,0,0,0,205.37-4a72.12,72.12,0,0,0,21.25,51.31,72.12,72.12,0,0,0,51.31,21.25,72.13,72.13,0,0,0,51.32-21.25A72.12,72.12,0,0,0,350.5-4,72.1,72.1,0,0,0,329.25-55.3,72.09,72.09,0,0,0,277.94-76.56Z" transform="translate(93.62 89.86)"/><path class="cls-30" d="M117.23,256.3a40.21,40.21,0,1,1-56.87,0A40.2,40.2,0,0,1,117.23,256.3Z" transform="translate(93.62 89.86)"/><path class="cls-31" d="M110.5,263a40.21,40.21,0,1,1-56.86,0A40.21,40.21,0,0,1,110.5,263Z" transform="translate(93.62 89.86)"/><path class="cls-32" d="M82.07,332.66a41.21,41.21,0,1,1,29.14-12.07A40.9,40.9,0,0,1,82.07,332.66Zm0-80.41a39.21,39.21,0,1,0,27.72,11.48A39,39,0,0,0,82.07,252.25Z" transform="translate(93.62 89.86)"/><path class="cls-33" d="M123.17,150.77a110.69,110.69,0,1,1-156.54,0A110.67,110.67,0,0,1,123.17,150.77Z" transform="translate(93.62 89.86)"/><path class="cls-34" d="M104.65,169.29a110.69,110.69,0,1,1-156.54,0A110.69,110.69,0,0,1,104.65,169.29Z" transform="translate(93.62 89.86)"/><path class="cls-35" d="M26.38,359.26a111,111,0,0,1-79-32.72,111.71,111.71,0,0,1,0-158,111,111,0,0,1,79-32.71,111,111,0,0,1,79,32.71,111.68,111.68,0,0,1,0,158A111,111,0,0,1,26.38,359.26Zm0-221.39A109,109,0,0,0-51.18,170a109.7,109.7,0,0,0,0,155.13,109,109,0,0,0,77.57,32.13A109,109,0,0,0,104,325.13,109.69,109.69,0,0,0,104,170,109,109,0,0,0,26.38,137.87Z" transform="translate(93.62 89.86)"/><path class="cls-36" d="M170.87,202.65a29.5,29.5,0,1,1-41.72,0A29.5,29.5,0,0,1,170.87,202.65Z" transform="translate(93.62 89.86)"/><path class="cls-37" d="M165.94,207.59a29.5,29.5,0,1,1-41.72,0A29.48,29.48,0,0,1,165.94,207.59Z" transform="translate(93.62 89.86)"/><path class="cls-38" d="M145.08,259A30.51,30.51,0,1,1,166.64,250,30.31,30.31,0,0,1,145.08,259Zm0-59a28.5,28.5,0,1,0,20.15,8.34A28.34,28.34,0,0,0,145.08,200Z" transform="translate(93.62 89.86)"/><path class="cls-39" d="M153.69,20.67a55.16,55.16,0,1,1-78,0A55.16,55.16,0,0,1,153.69,20.67Z" transform="translate(93.62 89.86)"/><path class="cls-40" d="M144.46,29.9a55.16,55.16,0,1,1-78,0A55.16,55.16,0,0,1,144.46,29.9Z" transform="translate(93.62 89.86)"/><path class="cls-41" d="M105.46,125.06A56.16,56.16,0,0,1,65.75,29.19a56.16,56.16,0,0,1,79.42,79.42A55.77,55.77,0,0,1,105.46,125.06Zm0-110.31A54.16,54.16,0,0,0,67.17,107.2a54.16,54.16,0,0,0,76.59-76.59A53.8,53.8,0,0,0,105.46,14.75Z" transform="translate(93.62 89.86)"/><path class="cls-42" d="M64.33,110a20.7,20.7,0,1,1-29.27,0A20.7,20.7,0,0,1,64.33,110Z" transform="translate(93.62 89.86)"/><path class="cls-43" d="M60.87,113.49a20.7,20.7,0,1,1-29.27,0A20.7,20.7,0,0,1,60.87,113.49Z" transform="translate(93.62 89.86)"/><path class="cls-44" d="M46.23,149.83a21.7,21.7,0,1,1,15.35-6.35A21.55,21.55,0,0,1,46.23,149.83Zm0-41.4a19.7,19.7,0,1,0,13.93,5.77A19.58,19.58,0,0,0,46.23,108.43Z" transform="translate(93.62 89.86)"/><path class="cls-45" d="M365.83,7.7a40.4,40.4,0,1,1-57.14,0A40.41,40.41,0,0,1,365.83,7.7Z" transform="translate(93.62 89.86)"/><path class="cls-46" d="M359.07,14.46a40.4,40.4,0,1,1-57.14,0A40.41,40.41,0,0,1,359.07,14.46Z" transform="translate(93.62 89.86)"/><path class="cls-47" d="M330.5,84.42a41.4,41.4,0,0,1-29.27-70.67A41.4,41.4,0,1,1,359.77,72.3,41.11,41.11,0,0,1,330.5,84.42Zm0-80.8a39.4,39.4,0,0,0-27.86,67.26,39.4,39.4,0,1,0,55.72-55.72A39.15,39.15,0,0,0,330.5,3.62Z" transform="translate(93.62 89.86)"/><path class="cls-48" d="M241.54,132a40.32,40.32,0,1,1-57,0A40.32,40.32,0,0,1,241.54,132Z" transform="translate(93.62 89.86)"/><path class="cls-49" d="M234.79,138.73a40.32,40.32,0,1,1-57,0A40.31,40.31,0,0,1,234.79,138.73Z" transform="translate(93.62 89.86)"/><path class="cls-50" d="M206.28,208.56a41.31,41.31,0,1,1,29.22-12.1A41.05,41.05,0,0,1,206.28,208.56Zm0-80.64a39.33,39.33,0,1,0,27.8,11.52A39.05,39.05,0,0,0,206.28,127.92Z" transform="translate(93.62 89.86)"/><path class="cls-51" d="M652.46,389.46a48.48,48.48,0,1,1-68.56,0A48.47,48.47,0,0,1,652.46,389.46Z" transform="translate(93.62 89.86)"/><path class="cls-52" d="M644.35,397.57a48.48,48.48,0,1,1-68.56,0A48.48,48.48,0,0,1,644.35,397.57Z" transform="translate(93.62 89.86)"/><path class="cls-53" d="M610.07,481.33a49.48,49.48,0,1,1,35-14.49A49.13,49.13,0,0,1,610.07,481.33Zm0-97a47.49,47.49,0,1,0,33.57,13.91A47.17,47.17,0,0,0,610.07,384.37Z" transform="translate(93.62 89.86)"/><path class="cls-54" d="M732.09,210.26a55,55,0,1,1-77.85,0A55,55,0,0,1,732.09,210.26Z" transform="translate(93.62 89.86)"/><path class="cls-55" d="M722.88,219.46a55,55,0,1,1-77.85,0A55.06,55.06,0,0,1,722.88,219.46Z" transform="translate(93.62 89.86)"/><path class="cls-56" d="M684,314.43A56,56,0,1,1,723.58,298,55.7,55.7,0,0,1,684,314.43Zm0-110.09a54,54,0,1,0,38.22,15.83A53.73,53.73,0,0,0,684,204.34Z" transform="translate(93.62 89.86)"/><path class="cls-57" d="M769.05,272.87a38.83,38.83,0,1,1-54.91,0A38.82,38.82,0,0,1,769.05,272.87Z" transform="translate(93.62 89.86)"/><path class="cls-58" d="M762.55,279.36a38.83,38.83,0,1,1-54.91,0A38.83,38.83,0,0,1,762.55,279.36Z" transform="translate(93.62 89.86)"/><path class="cls-59" d="M735.1,346.65A39.83,39.83,0,1,1,763.26,335,39.57,39.57,0,0,1,735.1,346.65Zm0-77.66a37.83,37.83,0,1,0,26.75,11.08A37.62,37.62,0,0,0,735.1,269Z" transform="translate(93.62 89.86)"/><path class="cls-60" d="M852.28,289.22a81.11,81.11,0,1,1-114.71,0A81.11,81.11,0,0,1,852.28,289.22Z" transform="translate(93.62 89.86)"/><path class="cls-61" d="M838.71,302.79a81.11,81.11,0,1,1-114.71,0A81.11,81.11,0,0,1,838.71,302.79Z" transform="translate(93.62 89.86)"/><path class="cls-62" d="M781.35,442.26a82.11,82.11,0,1,1,58.06-24.05A81.57,81.57,0,0,1,781.35,442.26Zm0-162.22A80.11,80.11,0,1,0,838,303.5,79.57,79.57,0,0,0,781.35,280Z" transform="translate(93.62 89.86)"/><path class="cls-63" d="M537,405.39a43.92,43.92,0,1,1-62.12,0A43.92,43.92,0,0,1,537,405.39Z" transform="translate(93.62 89.86)"/><path class="cls-64" d="M529.61,412.73a43.93,43.93,0,1,1-62.12,0A43.93,43.93,0,0,1,529.61,412.73Z" transform="translate(93.62 89.86)"/><path class="cls-65" d="M498.55,488.72a44.93,44.93,0,1,1,31.76-13.16A44.63,44.63,0,0,1,498.55,488.72Zm0-87.85a42.92,42.92,0,1,0,30.35,12.57A42.61,42.61,0,0,0,498.55,400.87Z" transform="translate(93.62 89.86)"/><path class="cls-66" d="M455.09,487.25a18.94,18.94,0,1,1-26.79,0A18.94,18.94,0,0,1,455.09,487.25Z" transform="translate(93.62 89.86)"/><path class="cls-67" d="M451.92,490.42a18.94,18.94,0,1,1-26.79,0A18.94,18.94,0,0,1,451.92,490.42Z" transform="translate(93.62 89.86)"/><path class="cls-68" d="M438.53,523.76a19.94,19.94,0,1,1,14.1-5.84A19.82,19.82,0,0,1,438.53,523.76Zm0-37.89a18,18,0,1,0,12.69,5.26A17.81,17.81,0,0,0,438.52,485.87Z" transform="translate(93.62 89.86)"/><path class="cls-69" d="M701.67,340.25a32.17,32.17,0,1,1-45.49,0A32.15,32.15,0,0,1,701.67,340.25Z" transform="translate(93.62 89.86)"/><path class="cls-70" d="M696.29,345.63a32.17,32.17,0,1,1-45.49,0A32.17,32.17,0,0,1,696.29,345.63Z" transform="translate(93.62 89.86)"/><path class="cls-71" d="M673.54,401.54A33.15,33.15,0,1,1,697,391.83,32.95,32.95,0,0,1,673.54,401.54Zm0-64.33a31.17,31.17,0,1,0,22,9.13A31,31,0,0,0,673.54,337.21Z" transform="translate(93.62 89.86)"/><circle class="cls-72" cx="806.61" cy="235.31" r="73.56" transform="translate(210.51 805.04) rotate(-51.09)"/><path class="cls-73" d="M846.32,195.6a73.56,73.56,0,1,1-104,0A73.56,73.56,0,0,1,846.32,195.6Z" transform="translate(93.62 89.86)"/><path class="cls-74" d="M794.3,322.18A74.57,74.57,0,1,1,847,300.34,74.09,74.09,0,0,1,794.3,322.18Zm0-147.13a72.56,72.56,0,1,0,51.32,21.25A72.08,72.08,0,0,0,794.3,175.05Z" transform="translate(93.62 89.86)"/><path class="cls-75" d="M633.59,507.9a40.21,40.21,0,1,1-56.86,0A40.2,40.2,0,0,1,633.59,507.9Z" transform="translate(93.62 89.86)"/><path class="cls-76" d="M626.87,514.63a40.21,40.21,0,1,1-56.86,0A40.21,40.21,0,0,1,626.87,514.63Z" transform="translate(93.62 89.86)"/><path class="cls-77" d="M598.44,584.27a41.21,41.21,0,1,1,29.14-12.07A40.94,40.94,0,0,1,598.44,584.27Zm0-80.42a39.21,39.21,0,1,0,27.72,11.49A38.95,38.95,0,0,0,598.44,503.85Z" transform="translate(93.62 89.86)"/><path class="cls-78" d="M639.54,402.37a110.69,110.69,0,1,1-156.54,0A110.7,110.7,0,0,1,639.54,402.37Z" transform="translate(93.62 89.86)"/><path class="cls-79" d="M621,420.9a110.69,110.69,0,1,1-156.54,0A110.69,110.69,0,0,1,621,420.9Z" transform="translate(93.62 89.86)"/><path class="cls-80" d="M542.75,610.86a111.68,111.68,0,1,1,79-32.71A111,111,0,0,1,542.75,610.86Zm0-221.38a109.68,109.68,0,1,0,77.56,32.12A109,109,0,0,0,542.75,389.48Z" transform="translate(93.62 89.86)"/><path class="cls-81" d="M687.24,454.26a29.5,29.5,0,1,1-41.72,0A29.5,29.5,0,0,1,687.24,454.26Z" transform="translate(93.62 89.86)"/><path class="cls-82" d="M682.3,459.19a29.5,29.5,0,1,1-41.71,0A29.5,29.5,0,0,1,682.3,459.19Z" transform="translate(93.62 89.86)"/><path class="cls-83" d="M661.44,510.55A30.5,30.5,0,1,1,683,501.62,30.3,30.3,0,0,1,661.44,510.55Zm0-59a28.49,28.49,0,1,0,20.15,8.35A28.34,28.34,0,0,0,661.45,451.55Z" transform="translate(93.62 89.86)"/><path class="cls-84" d="M670.06,272.28a55.15,55.15,0,1,1-78,0A55.15,55.15,0,0,1,670.06,272.28Z" transform="translate(93.62 89.86)"/><path class="cls-85" d="M660.83,281.51a55.15,55.15,0,1,1-78,0A55.13,55.13,0,0,1,660.83,281.51Z" transform="translate(93.62 89.86)"/><path class="cls-86" d="M621.83,376.67a56.16,56.16,0,1,1,39.71-16.45A55.79,55.79,0,0,1,621.83,376.67Zm0-110.32a54.15,54.15,0,1,0,38.3,15.86A53.84,53.84,0,0,0,621.83,266.35Z" transform="translate(93.62 89.86)"/><path class="cls-87" d="M475.34,493.8a24.45,24.45,0,1,1-34.58,0A24.45,24.45,0,0,1,475.34,493.8Z" transform="translate(93.62 89.86)"/><path class="cls-88" d="M471.25,497.89a24.46,24.46,0,1,1-34.58,0A24.47,24.47,0,0,1,471.25,497.89Z" transform="translate(93.62 89.86)"/><path class="cls-89" d="M454,540.63a25.46,25.46,0,1,1,18-7.46A25.3,25.3,0,0,1,454,540.63Zm0-48.9a23.45,23.45,0,1,0,16.59,6.86A23.29,23.29,0,0,0,454,491.73Z" transform="translate(93.62 89.86)"/><path class="cls-90" d="M580.7,361.64a20.7,20.7,0,1,1-29.27,0A20.68,20.68,0,0,1,580.7,361.64Z" transform="translate(93.62 89.86)"/><path class="cls-91" d="M577.24,365.1a20.7,20.7,0,1,1-29.28,0A20.71,20.71,0,0,1,577.24,365.1Z" transform="translate(93.62 89.86)"/><path class="cls-92" d="M562.6,401.44A21.71,21.71,0,1,1,578,395.08,21.56,21.56,0,0,1,562.6,401.44Zm0-41.4a19.7,19.7,0,1,0,13.93,5.77A19.58,19.58,0,0,0,562.6,360Z" transform="translate(93.62 89.86)"/><path class="cls-93" d="M757.91,383.59a40.32,40.32,0,1,1-57,0A40.33,40.33,0,0,1,757.91,383.59Z" transform="translate(93.62 89.86)"/><path class="cls-94" d="M751.16,390.34a40.32,40.32,0,1,1-57,0A40.32,40.32,0,0,1,751.16,390.34Z" transform="translate(93.62 89.86)"/><path class="cls-95" d="M722.65,460.16a41.31,41.31,0,1,1,29.22-12.1A41,41,0,0,1,722.65,460.16Zm0-80.63a39.33,39.33,0,1,0,27.8,11.52A39.05,39.05,0,0,0,722.65,379.53Z" transform="translate(93.62 89.86)"/><path class="cls-96" d="M791.18,151.16a51.23,51.23,0,1,1-72.45,0A51.22,51.22,0,0,1,791.18,151.16Z" transform="translate(93.62 89.86)"/><path class="cls-97" d="M782.61,159.73a51.23,51.23,0,1,1-72.45,0A51.22,51.22,0,0,1,782.61,159.73Z" transform="translate(93.62 89.86)"/><path class="cls-98" d="M746.38,248.19a52.24,52.24,0,1,1,36.94-15.3A51.86,51.86,0,0,1,746.38,248.19Zm0-102.47a50.24,50.24,0,1,0,35.52,14.72A49.92,49.92,0,0,0,746.38,145.72Z" transform="translate(93.62 89.86)"/></g></g></g></svg>